<svg height="512" viewBox="0 0 512 512" width="512" xmlns="http://www.w3.org/2000/svg"><g id="Filled_outline" data-name="Filled outline"><path d="m320 248h52.823a48 48 0 0 1 41.16 23.3l34.017 56.7-56 32-16-24v152h-240v-152l-16 24-56-32 26.733-53.466a48 48 0 0 1 42.933-26.534h58.334a16 16 0 0 0 16-16v-64h96v64a16 16 0 0 0 16 16z" fill="#fdc8a2"/><path d="m360 488h-208a16 16 0 0 1 -16-16v-156.118a48 48 0 0 1 14.059-33.941l33.941-33.941h144l33.941 33.941a48 48 0 0 1 14.059 33.941v156.118a16 16 0 0 1 -16 16z" fill="#de5540"/><rect fill="#348ed8" height="128" rx="32" width="176" x="168" y="360"/><path d="m291.047 391.2-48.174 26.76a48.008 48.008 0 0 1 -23.311 6.04h-27.562a24 24 0 0 1 -24-24v-40a16 16 0 0 1 16-16h94.818a25.183 25.183 0 0 1 25.182 25.182 25.181 25.181 0 0 1 -12.953 22.018z" fill="#844e3a"/><path d="m344 321.94v78.06h-32.31a16 16 0 0 1 -12.49-6l-24.8-31a8 8 0 0 0 -6.247-3h-24.31a8 8 0 0 0 -6.247 3l-24.8 31a16 16 0 0 1 -12.49 6h-32.306v-78.06a24.048 24.048 0 0 1 7.03-16.97l30.627-30.627a8 8 0 0 1 5.657-2.343h89.372a8 8 0 0 1 5.657 2.343l30.627 30.627a24.048 24.048 0 0 1 7.03 16.97z" fill="#4db6e4"/><path d="m208 168h96v104h-96z" fill="#de5540"/><path d="m240 168h32v104h-32z" fill="#ffb431"/><path d="m240 240h32v16h-32z" fill="#f99e0c"/><path d="m240 208h32v16h-32z" fill="#f99e0c"/><path d="m208 208h32v16h-32z" fill="#d6513c"/><path d="m272 192h32v32h-32z" fill="#d6513c"/><path d="m328 96h8a24 24 0 0 1 24 24 24 24 0 0 1 -24 24h-8a0 0 0 0 1 0 0v-48a0 0 0 0 1 0 0z" fill="#fdbf92"/><path d="m336 104v50.207a16 16 0 0 1 -3.708 10.243l-31.492 37.793a16 16 0 0 1 -12.294 5.757h-32.506v-184c40.531 0 75.6 31.64 79.61 72q.39 3.945.39 8z" fill="#fdc8a2"/><circle cx="296" cy="112" fill="#844e3a" r="16"/><path d="m176 144v10.207a16 16 0 0 0 3.708 10.243l31.492 37.793a16 16 0 0 0 12.294 5.757h8.506v-64z" fill="#e4d1b7"/><path d="m256 24v184h-40a8 8 0 0 1 -8-8v-32h-16a24 24 0 0 1 -24-24v-32a87.992 87.992 0 0 1 88-88z" fill="#f1ddc1"/><circle cx="216" cy="112" fill="#cdbca4" r="24"/><path d="m256 120v40h-16a8.009 8.009 0 0 1 -6.66-12.44l16-24a8.014 8.014 0 0 1 6.66-3.56z" fill="#cdbca4"/><path d="m60.031 334.946 56 32a8 8 0 0 0 10.625-2.508l1.344-2.016v125.578a8 8 0 0 0 8 8h240a8 8 0 0 0 8-8v-58.667h-16v42.667a8.009 8.009 0 0 1 -8 8h-16.022a39.788 39.788 0 0 0 8.022-24v-134.059a31.791 31.791 0 0 0 -9.373-22.627l-30.627-30.627v-14.063a23.885 23.885 0 0 0 8 1.376h4.687l31.6 31.6a39.735 39.735 0 0 1 11.713 28.28v100.12h16v-53.578l1.344 2.016a8 8 0 0 0 10.625 2.508l56-32a8 8 0 0 0 2.891-11.062l-34.02-56.7a56.281 56.281 0 0 0 -48.02-27.184h-52.82a8.009 8.009 0 0 1 -8-8v-30.7l30.146-36.174a8 8 0 0 0 1.854-5.126v-9.009a32 32 0 0 0 -1.334-62.291 88.142 88.142 0 0 0 -86.666-72.7 95.422 95.422 0 0 0 -37.37 7.547l6.233 14.737a79.13 79.13 0 0 1 23.137-5.892v93.186l-14.656 21.984a8 8 0 0 0 6.656 12.438h8v40h-32v-32a8 8 0 0 0 -8-8h-16a16.019 16.019 0 0 1 -16-16v-32a79.542 79.542 0 0 1 16-48.11v16.11h16v-32.02q3.129-2.338 6.523-4.4l-8.309-13.68a95.38 95.38 0 0 0 -46.214 82.1v32a32 32 0 0 0 14.637 26.859l25.363 30.441v30.7a8.009 8.009 0 0 1 -8 8h-58.33a55.692 55.692 0 0 0 -43.947 21.277l12.553 9.92a39.785 39.785 0 0 1 31.394-15.197h31.017l-20.287 20.283a55.632 55.632 0 0 0 -16.4 39.6v17.7l-10.514 15.771-42.946-24.545 20.912-41.833-14.311-7.155-24.3 48.6a8 8 0 0 0 3.19 10.525zm312.789-78.946a40.2 40.2 0 0 1 34.3 19.416l29.816 49.692-42.422 24.241-10.514-15.771v-17.7a55.632 55.632 0 0 0 -16.4-39.6l-20.287-20.278zm-28.82-149.835a15.978 15.978 0 0 1 3.32 25.142 16.159 16.159 0 0 1 -3.32 2.532zm-80 373.835h-64a24.043 24.043 0 0 1 -22.966-17.034 23.932 23.932 0 0 0 6.966 1.034h8v-16h-8a8.009 8.009 0 0 1 -8-8v-12.3a31.793 31.793 0 0 0 16 4.3h24v8a23.885 23.885 0 0 0 1.376 8h-9.376v16h48a8.009 8.009 0 0 1 8 8zm-85.835-72h22.145a23.882 23.882 0 0 0 18.741-9.007l24.794-30.993h24.31l14.825 18.531-43.994 24.435a40.108 40.108 0 0 1 -19.426 5.034h-27.56a16 16 0 0 1 -13.835-8zm84.865 37.657a7.949 7.949 0 0 1 -5.657 2.343h-17.373a8.009 8.009 0 0 1 -8-8v-9.406a56.081 56.081 0 0 0 14.756-5.641l1.244-.691v7.738h16v-16c0-.216.013-.429.03-.641l13.249-7.359h2.721a16.019 16.019 0 0 1 16 16v8h-9.373a23.843 23.843 0 0 0 -16.97 7.03zm72.97 10.343a24.028 24.028 0 0 1 -24 24h-32v-8a23.888 23.888 0 0 0 -5.462-15.225l6.432-6.432a7.949 7.949 0 0 1 5.657-2.343h9.373a8.009 8.009 0 0 1 8 8v8h16v-8a23.943 23.943 0 0 0 -8-17.869v-14.131a31.8 31.8 0 0 0 -4.518-16.37 24.27 24.27 0 0 0 4.208.37h24.31zm-72-280.583c11.437-1.879 22.192-8.35 30.247-18.419l-12.494-10c-5 6.25-11.141 10.4-17.753 12.113v-126.67a72.107 72.107 0 0 1 64 71.559v53.1l-35.747 42.9h-28.253zm32 40.583v48h-16v-48zm-48 0h16v16h-16zm0 32h16v16h-16zm-32-32h16v48h-16zm-4.686 64h89.372l16 16h-44.686v16h60.527a15.871 15.871 0 0 1 3.473 9.941v6.059h-56v16h56v16h-24v16h24v16h-24.31a7.962 7.962 0 0 1 -6.247-3l-27.2-34a8 8 0 0 0 -6.243-3h-32a8 8 0 0 0 -6.247 3l-27.2 34a7.962 7.962 0 0 1 -6.247 3h-24.306v-16h24v-16h-24v-16h48v-16h-48v-6.059a15.871 15.871 0 0 1 3.473-9.941h60.527v-16h-44.686zm-67.314 35.88a39.735 39.735 0 0 1 11.717-28.28l31.6-31.6h4.683a23.885 23.885 0 0 0 8-1.376v14.063l-30.627 30.627a31.791 31.791 0 0 0 -9.373 22.627v134.059a39.788 39.788 0 0 0 8.022 24h-16.022a8.009 8.009 0 0 1 -8-8zm152-187.88a16 16 0 1 1 16-16 16.019 16.019 0 0 1 -16 16zm-104-16a24 24 0 1 0 24-24 24.027 24.027 0 0 0 -24 24zm24-8a8 8 0 1 1 -8 8 8.009 8.009 0 0 1 8-8z"/></g></svg>