<svg height="512" viewBox="0 0 512 512" width="512" xmlns="http://www.w3.org/2000/svg"><g id="Filled_outline" data-name="Filled outline"><path d="m272 224 24 32-24 32h-32l-24-32 24-32z" fill="#459ce5"/><path d="m281.6 172.8 14.4 19.2-24 32h-32l-24-32 14.4-19.2a32 32 0 0 1 25.6-12.8 32 32 0 0 1 25.6 12.8z" fill="#348ed8"/><path d="m272 288 24 32-14.4 19.2a32 32 0 0 1 -25.6 12.8 32 32 0 0 1 -25.6-12.8l-14.4-19.2 24-32z" fill="#de5540"/><path d="m216 192 24 32-24 32h-32l-9.6-12.8a32 32 0 0 1 0-38.4 32 32 0 0 1 25.6-12.8z" fill="#de5540"/><path d="m216 256 24 32-24 32h-16a32 32 0 0 1 -25.6-12.8 32 32 0 0 1 0-38.4l9.6-12.8z" fill="#348ed8"/><path d="m337.6 204.8a32 32 0 0 1 0 38.4l-9.6 12.8h-32l-24-32 24-32h16a32 32 0 0 1 25.6 12.8z" fill="#de5540"/><g fill="#348ed8"><path d="m328 256 9.6 12.8a32 32 0 0 1 0 38.4 32 32 0 0 1 -25.6 12.8h-16l-24-32 24-32z"/><circle cx="464" cy="192" r="24"/><circle cx="48" cy="192" r="24"/><circle cx="320" cy="464" r="24"/></g><path d="m188 203.216a24.03 24.03 0 0 1 12-3.216h12l18 24-18 24h-24l-7.2-9.6a24.124 24.124 0 0 1 0-28.8l-12.8-9.6a40.208 40.208 0 0 0 0 48l6 8-6 8a40 40 0 0 0 32 64h12l12 16a40 40 0 0 0 64 0l12-16h12a40 40 0 0 0 32-64l-6-8 6-8a40.208 40.208 0 0 0 0-48 40.191 40.191 0 0 0 -32-16h-12l-12-16a40 40 0 0 0 -64 0l-12 16h-12a40.068 40.068 0 0 0 -20 5.358zm56 28.784h24l18 24-18 24h-24l-18-24zm-32 80h-12a24 24 0 0 1 -19.2-38.4l7.2-9.6h24l18 24zm63.2 22.4a24 24 0 0 1 -38.4 0l-10.8-14.4 18-24h24l18 24zm56-32a24.116 24.116 0 0 1 -19.2 9.6h-12l-18-24 18-24h24l7.2 9.6a24.124 24.124 0 0 1 0 28.8zm-31.2-102.4h12a24 24 0 0 1 19.2 38.4l-7.2 9.6h-24l-18-24zm-63.2-22.4a24 24 0 0 1 38.4 0l10.8 14.4-18 24h-24l-18-24zm-190.917 46.322a196.352 196.352 0 0 0 15.654 32.064c-12.571 20.926-20.39 41.389-23.256 60.889-3.266 22.225.054 42.125 9.871 59.125s25.39 29.826 46.272 38.112c17.325 6.875 37.606 10.345 60.4 10.345 1.3 0 2.621-.016 3.942-.039 11.838 21.345 25.648 38.343 41.1 50.57 17.61 13.943 36.498 21.012 56.134 21.012a84.251 84.251 0 0 0 40.287-10.536 31.984 31.984 0 1 0 46.417-43.99c3.676-5.353 7.2-11.061 10.527-17.058 1.222.02 2.442.035 3.654.035 25.621 0 48.659-4.477 67.047-13.079l-6.781-14.493c-15.234 7.127-34.351 11.037-55.808 11.51 10.619-22.985 18.83-49.54 24-77.714 21.825-18.571 40.718-38.964 55.311-59.655 9.191 16.689 14.983 32.853 17.236 48.182 2.729 18.574.072 34.992-7.9 48.8a66.424 66.424 0 0 1 -16.551 18.948l9.9 12.566a82.339 82.339 0 0 0 20.509-23.516c9.817-17 13.137-36.9 9.871-59.125-2.866-19.5-10.684-39.963-23.256-60.889a196.184 196.184 0 0 0 15.653-32.064 31.994 31.994 0 0 0 7.12-62.558 81.43 81.43 0 0 0 -9.388-25.364c-9.822-17-25.39-29.826-46.272-38.112-18.317-7.269-39.942-10.731-64.341-10.31-11.837-21.343-25.647-38.34-41.1-50.566-17.611-13.943-36.499-21.012-56.135-21.012-31.9 0-62.791 19.5-86.98 54.916l13.212 9.024c27.068-39.623 55.054-47.94 73.768-47.94 15.943 0 31.49 5.907 46.21 17.557 12.146 9.612 23.248 22.709 33.107 39.012-25.2 2.291-52.308 8.457-79.317 18.072-31.686-11.28-63.517-17.826-92.234-18.925-26.454-1.014-49.783 2.409-69.342 10.171-20.882 8.286-36.45 21.113-46.269 38.113a81.436 81.436 0 0 0 -9.391 25.369 31.994 31.994 0 0 0 7.119 62.558zm54.443 175.32c-17.452-6.925-30.344-17.437-38.318-31.242s-10.626-30.224-7.9-48.8c2.253-15.329 8.045-31.493 17.236-48.181 14.593 20.691 33.487 41.084 55.311 59.654 5.17 28.183 13.384 54.743 24.008 77.733-19.044-.385-35.936-3.45-50.337-9.164zm22.606-93.409c-16.802-15.933-31.255-32.857-42.487-49.833 11.232-16.976 25.685-33.9 42.487-49.833a424.953 424.953 0 0 0 0 99.666zm23.378 40.495a424.154 424.154 0 0 0 41.69 27.45 424.789 424.789 0 0 0 44.623 22.385c-22.209 6.585-44.092 10.64-64.4 11.879-9.086-18.221-16.515-39.2-21.913-61.714zm141.69 117.672a31.976 31.976 0 0 0 .849 7.3 68.563 68.563 0 0 1 -32.849 8.7c-15.943 0-31.49-5.907-46.21-17.557-12.146-9.613-23.248-22.709-33.107-39.012 25.2-2.291 52.308-8.457 79.317-18.072 27 9.614 54.108 15.779 79.306 18.071q-3.1 5.12-6.393 9.843a31.98 31.98 0 0 0 -40.913 30.727zm32 16a16 16 0 1 1 16-16 16.019 16.019 0 0 1 -16 16zm23.777-71.958c-20.308-1.239-42.191-5.294-64.4-11.879a424.789 424.789 0 0 0 44.623-22.385 424.036 424.036 0 0 0 41.69-27.45c-5.398 22.514-12.828 43.493-21.913 61.714zm45.291-102.209a424.04 424.04 0 0 0 2.932-49.833 424.04 424.04 0 0 0 -2.932-49.833c16.8 15.933 31.255 32.856 42.487 49.833-11.232 16.976-25.685 33.9-42.487 49.833zm74.932-129.833a16 16 0 1 1 -16 16 16.019 16.019 0 0 1 16-16zm-52.326-63.242c17.452 6.925 30.344 17.437 38.321 31.247a64.882 64.882 0 0 1 6.746 16.836 31.993 31.993 0 0 0 -6.593 60 175.913 175.913 0 0 1 -9.5 20.122c-14.592-20.686-33.483-41.075-55.3-59.64-5.171-28.183-13.385-54.743-24.009-77.734 19.044.391 35.935 3.455 50.335 9.169zm-67.9-8.8c9.086 18.221 16.516 39.2 21.913 61.714a425.758 425.758 0 0 0 -86.313-49.835c22.212-6.585 44.095-10.637 64.403-11.879zm-27.774 48.12a400.63 400.63 0 0 1 54.584 37.766 401.414 401.414 0 0 1 5.416 66.156 401.423 401.423 0 0 1 -5.416 66.156 400.712 400.712 0 0 1 -54.584 37.766 401.613 401.613 0 0 1 -60 28.4 401.613 401.613 0 0 1 -60-28.4 400.63 400.63 0 0 1 -54.584-37.766 406.753 406.753 0 0 1 0-132.312 407.145 407.145 0 0 1 114.584-66.163 401.613 401.613 0 0 1 60 28.397zm-147.777-48.12c20.308 1.239 42.191 5.294 64.4 11.879a425.758 425.758 0 0 0 -86.313 49.835c5.397-22.514 12.827-43.492 21.913-61.714zm-106.215 40.042c7.974-13.806 20.866-24.318 38.318-31.243 14.4-5.714 31.3-8.78 50.34-9.167-10.623 22.99-18.838 49.552-24.008 77.734-21.82 18.567-40.711 38.955-55.3 59.641a175.993 175.993 0 0 1 -9.5-20.122 31.993 31.993 0 0 0 -6.593-60 64.874 64.874 0 0 1 6.743-16.843zm-14.008 32a16 16 0 1 1 -16 16 16.019 16.019 0 0 1 16-16z"/></g></svg>