<svg height="512" viewBox="0 0 512 512" width="512" xmlns="http://www.w3.org/2000/svg"><g id="Filled_outline" data-name="Filled outline"><path d="m16 16h480v480h-480z" fill="#426887"/><path d="m384 416 65.373 65.373a22.627 22.627 0 0 0 16 6.627 22.628 22.628 0 0 0 22.627-22.627 22.627 22.627 0 0 0 -6.627-16l-65.373-65.373z" fill="#d6513c"/><path d="m200.74 471.41a159.511 159.511 0 0 1 -2.81 24.59h-32.82c7.7-30.37 3.31-69.59-13.19-113.41q-3.24-8.595-7.1-17.41c1.83.8 3.65 1.6 5.49 2.43q18.075 8.25 35.38 14.19 2.775 8.055 5.04 15.94c7.53 26.18 10.89 50.83 10.01 73.67z" fill="#4db6e4"/><path d="m190.73 397.74q-2.5-.81-5.04-1.68-16.53-5.67-33.77-13.47-3.24-8.595-7.1-17.41c1.83.8 3.65 1.6 5.49 2.43q18.075 8.25 35.38 14.19 2.775 8.055 5.04 15.94z" fill="#3ba5d3"/><path d="m496 198.48a159.339 159.339 0 0 1 -23.48 2.86c-27.9 1.35-58.53-3.68-91.4-14.97q-17.28-5.955-35.38-14.19c-1.83-.83-3.65-1.64-5.48-2.44-37.71-16.5-73.29-24.79-103.22-23.99-28 .75-51.11 9.44-66.82 25.15s-24.4 38.81-25.14 66.82c-.8 29.93 7.49 65.51 23.98 103.22q-2.73-1.2-5.47-2.44-18.045-8.235-35.37-14.15c-10.76-31.32-15.85-60.63-15.13-87.48.96-36.35 12.9-66.99 34.51-88.6s52.24-33.54 88.59-34.51c26.84-.71 56.14 4.37 87.45 15.12q17.3 5.955 35.38 14.19c1.84.83 3.66 1.63 5.48 2.43 51.28 22.44 97.14 29.14 131.5 20.15" fill="#4db6e4"/><path d="m343.84 16c-8.21 34.13-1.34 79.21 20.66 129.5-1.82-.8-3.64-1.6-5.48-2.43q-18.075-8.25-35.38-14.19c-11.3-32.87-16.33-63.5-14.97-91.39a160.015 160.015 0 0 1 2.47-21.49" fill="#348ed8"/><path d="m396.24 273.81c-.97 36.35-12.9 66.99-34.51 88.6s-52.24 33.54-88.59 34.51c-1.66.04-3.33.06-5 .06-25.47 0-53.08-5.09-82.45-15.18q-17.3-5.94-35.38-14.19c-1.84-.83-3.66-1.63-5.49-2.43-37.35-16.37-71.44-24.48-101.39-24.03a127.746 127.746 0 0 0 -27.43 3.24v-32.76c30.96-5.57 67.39-1.9 107.17 11.03q2.52.825 5.05 1.69 16.515 5.655 33.72 13.41c.55.24 1.1.49 1.65.74q2.745 1.245 5.47 2.44c37.71 16.5 73.29 24.79 103.23 23.99 28-.75 51.11-9.44 66.81-25.15s24.41-38.81 25.15-66.82c.68-25.26-5.12-54.54-16.87-85.73q-3.255-8.655-7.12-17.49c1.83.8 3.65 1.61 5.48 2.44q18.09 8.25 35.38 14.19 2.775 8.085 5.05 16c7.28 25.32 10.66 49.22 10.07 71.44z" fill="#348ed8"/><path d="m386.17 202.37q-2.52-.825-5.05-1.69-16.5-5.685-33.74-13.45-3.255-8.655-7.12-17.49c1.83.8 3.65 1.61 5.48 2.44q18.09 8.25 35.38 14.19 2.78 8.085 5.05 16z" fill="#2c86d1"/><circle cx="336" cy="336" fill="#de5540" r="112"/><circle cx="336" cy="336" fill="#f9a614" r="80"/><circle cx="336" cy="336" fill="#ffb431" r="64"/><path d="m256 336c50.932-53.333 109.069-53.333 160 0-50.931 53.333-109.068 53.333-160 0z" fill="#f1ddc1"/><circle cx="336" cy="336" fill="#426887" r="40"/><circle cx="336" cy="336" fill="#294154" r="16"/><g fill="#3ba5d3"><circle cx="56" cy="112" r="16"/><circle cx="232" cy="64" r="16"/><circle cx="472" cy="248" r="16"/><circle cx="280" cy="448" r="16"/></g><path d="m32 192h16v16h-16z"/><path d="m16 411.32 36.34 36.34 11.32-11.32-47.66-47.66z"/><path d="m447.66 52.34-36.35-36.34h-22.62l47.65 47.66z"/><path d="m120 64h16v16h-16z"/><path d="m64.34 459.66 36.34 36.34h22.64l-47.66-47.66z"/><path d="m56 136a24 24 0 1 0 -24-24 24.032 24.032 0 0 0 24 24zm0-32a8 8 0 1 1 -8 8 8.011 8.011 0 0 1 8-8z"/><path d="m232 88a24 24 0 1 0 -24-24 24.032 24.032 0 0 0 24 24zm0-32a8 8 0 1 1 -8 8 8.011 8.011 0 0 1 8-8z"/><path d="m160 16h16v16h-16z"/><path d="m424 336a88 88 0 1 0 -88 88 88.1 88.1 0 0 0 88-88zm-88-72a72.131 72.131 0 0 1 68.8 50.75c-21.95-17.76-45.02-26.75-68.8-26.75s-46.85 8.99-68.8 26.75a72.131 72.131 0 0 1 68.8-50.75zm44.02 52.88a136.931 136.931 0 0 1 24.69 19.12 136.931 136.931 0 0 1 -24.69 19.12 47.916 47.916 0 0 0 0-38.24zm-12.02 19.12a32 32 0 1 1 -32-32 32.036 32.036 0 0 1 32 32zm-76.02 19.12a136.931 136.931 0 0 1 -24.69-19.12 136.931 136.931 0 0 1 24.69-19.12 47.916 47.916 0 0 0 0 38.24zm-24.78 2.13c21.95 17.76 45.02 26.75 68.8 26.75s46.85-8.99 68.8-26.75a72.01 72.01 0 0 1 -137.6 0z"/><path d="m419.66 104.34-11.32 11.32 45.47 45.47c-24.93-1.6-53.32-8.94-83.22-21.72-12.75-29.86-20.1-58.27-21.71-83.22l47.46 47.47 11.32-11.32-58.6-58.59a110.153 110.153 0 0 1 2.56-15.88l.34-1.87h-16.34c-7.08 31.71-2.23 70.87 14.05 114.26-6.6-2.76-13.18-5.31-19.68-7.63-10.09-30.49-14.59-58.99-13.33-84.75a151.912 151.912 0 0 1 2.35-20.42l.3-1.46h-16.29a167.49 167.49 0 0 0 -2.34 21.1c-1.2 24.55 2.4 51.24 10.67 79.49-26.69-7.79-51.99-11.44-75.37-10.83-38.44 1.03-70.95 13.77-94.04 36.85a117.372 117.372 0 0 0 -20.8 28.36l14.16 7.45a101.212 101.212 0 0 1 17.96-24.49c20.13-20.13 48.88-31.26 83.14-32.17 25.79-.69 54.27 4.26 84.64 14.68 24.86 8.54 48.19 20.88 73.22 28.97 22.35 7.23 45.77 12.14 69.35 12.14a137.4 137.4 0 0 0 32.39-3.65v-16.7a153.111 153.111 0 0 1 -19.76 3.73z"/><path d="m459.66 64.34-11.32 11.32 47.66 47.66v-22.64z"/><circle cx="336" cy="336" r="16"/><path d="m344 480h16v16h-16z"/><path d="m472 224a24 24 0 1 0 24 24 24.032 24.032 0 0 0 -24-24zm0 32a8 8 0 1 1 8-8 8.011 8.011 0 0 1 -8 8z"/><path d="m480 360h16v16h-16z"/><path d="m383.73 178.81c-13.72-4.71-26.98-10.6-40.26-16.4-38.77-16.96-75.66-25.48-106.64-24.66-30.1.81-55.09 10.31-72.27 27.49-17.18 17.2-26.68 42.19-27.48 72.27-.69 26.03 5.23 56.22 17.19 88.2q-9.93-4.14-19.7-7.62c-9.6-29.02-14.15-56.26-13.48-81.01a140.543 140.543 0 0 1 8.4-45.66l-14.98-5.6a156.551 156.551 0 0 0 -9.42 50.84c-.62 23.38 3.03 48.69 10.84 75.4-36.69-10.74-70.24-13.62-99.93-8.55v16.35c30.72-5.34 70.04-1.5 109.63 12.06 16.49 5.64 32.32 12.91 48.34 19.72 7.44 3.16 15.04 5.95 22.72 8.49 2.53.83 22.89 5.08 23.31 6.65a117.354 117.354 0 0 0 6.28 17.82 294.027 294.027 0 0 1 -37.99-10.37c-25.37-8.71-49.14-21.33-74.73-29.48-22.65-7.21-46.39-11.96-70.25-11.6a138.162 138.162 0 0 0 -27.31 3.03v16.34a150.383 150.383 0 0 1 18.3-2.91l58.04 58.05 11.32-11.32-46.8-46.8c24.66 1.7 52.12 8.99 81.87 21.74 12.51 29.26 19.8 57.12 21.59 81.72l-44.66-44.66-11.32 11.32 55.98 55.97a168.946 168.946 0 0 1 -3.28 20.37h16.3c7.54-32.01 2.8-71.63-13.69-115.58 6.63 2.77 13.22 5.33 19.69 7.63 9.86 29.82 14.38 57.75 13.41 83.05a205.43 205.43 0 0 1 -3.18 24.9h16.5a167.649 167.649 0 0 0 2.66-24.28c.93-24.02-2.69-50.08-10.75-77.62a281.97 281.97 0 0 0 38.15 8.44 121.488 121.488 0 0 0 26.78 28.63 23.995 23.995 0 1 0 17.68-7.15 104.879 104.879 0 0 1 -32.92-33.1 103.1 103.1 0 0 1 -13.25-32.54 104.721 104.721 0 0 1 -2.42-22.38 103.584 103.584 0 0 1 38.8-81.03l-10.04-12.46a119.513 119.513 0 0 0 -44.76 93.49 122.665 122.665 0 0 0 .75 13.43 313.166 313.166 0 0 1 -41.59-14.59c-14.03-32.85-21.61-63.91-22.09-90.46l51.27 51.28 11.32-11.32-61.31-61.31c2.38-16.2 7.97-30.06 16.52-40.85l63.47 63.48 11.32-11.32-63.38-63.38c10.93-8.42 24.91-13.88 41.25-16.11l60.81 60.81 11.32-11.32-50.57-50.56c26.23.71 56.79 8.26 89.07 22.06a316.575 316.575 0 0 1 14.38 40.81 121.739 121.739 0 0 0 -12.54-.65 119.734 119.734 0 0 0 -62.96 17.82l8.4 13.62a104.252 104.252 0 0 1 76.14-13.19 104 104 0 0 1 -21.58 205.75 105.3 105.3 0 0 1 -20.31-1.98l-3.11 15.69a120.751 120.751 0 0 0 23.42 2.29 119.527 119.527 0 0 0 60.38-16.3l47.33 47.33a30.632 30.632 0 0 0 43.32-43.32l-8.87-8.87-11.32 11.32 8.87 8.87a14.364 14.364 0 0 1 3.17 4.73 14.628 14.628 0 0 1 -13.51 20.24 14.49 14.49 0 0 1 -10.34-4.29l-45.15-45.14a119.5 119.5 0 0 0 20.69-20.69l26.27 26.28 11.32-11.32-28.46-28.46a120.011 120.011 0 0 0 -38-160.81c-1.34-8.77-3.19-17.81-5.53-26.92l-15.5 3.97q1.71 6.69 3.05 13.27a118.292 118.292 0 0 0 -17.85-6.14 308.721 308.721 0 0 0 -10.81-34.78c7.89 3.3 15.74 6.31 23.46 8.97 33.8 11.61 65.56 16.79 94.39 15.39a168.161 168.161 0 0 0 23.09-2.71v-16.67c-7.03 1.38-16.53 3.04-23.87 3.4-26.78 1.3-56.54-3.6-88.4-14.54zm-103.73 261.19a8 8 0 1 1 -8 8 8.011 8.011 0 0 1 8-8z"/></g></svg>