<svg height="512" viewBox="0 0 512 512" width="512" xmlns="http://www.w3.org/2000/svg"><g id="Filled_outline" data-name="Filled outline"><path d="m24 80h464v352h-464z" fill="#ffb431"/><path d="m56 112h400v288h-400z" fill="#426887"/><path d="m67.32 112h-11.32v11.32l-32-32v-11.32h11.32z" fill="#f99e0c"/><path d="m488 80v11.32l-32 32v-11.32h-11.32l32-32z" fill="#f99e0c"/><path d="m56 112h400v16h-400z" fill="#3c6180"/><path d="m56 112h16v288h-16z" fill="#3c6180"/><path d="m24 400h464v32h-464z" fill="#ffb431"/><path d="m24 384h32v16h-32z" fill="#f9a614"/><path d="m408 360h80v40h-80z" fill="#de5540"/><path d="m456 360h32v40h-32z" fill="#d6513c"/><path d="m408 384h80v16h-80z" fill="#e4d1b7"/><path d="m456 384h32v16h-32z" fill="#d8c6ad"/><path d="m488 72h-464a8 8 0 0 0 -8 8v48h16v-28.686l16 16v276.686h-16v-252h-16v292a8 8 0 0 0 8 8h464a8 8 0 0 0 8-8v-72h-32v-244.686l16-16v245.686h16v-265a8 8 0 0 0 -8-8zm-8 352h-448v-16h448zm-70.946-83.969-29.697 51.969h-27.357v-16h-56v16h-232v-272h384v240h-31.928l6.874-12.031zm-9.054 48.094v3.875h-2.214zm80-12.125v16h-64v-16zm-27.314-272h-393.372l-16-16h425.372zm-292.686 56h-72v-16h72zm-56 32h-16v-16h16zm16 0v-16h40v16zm16 32h-48v-16h48zm158.764-60.272a8 8 0 0 0 -12.131-1.66l-168 152a8 8 0 0 0 5.367 13.932h264a8 8 0 0 0 6.764-12.272zm-153.998 148.272 20.986-18.988a31.973 31.973 0 0 1 6.248 18.988zm139.234 0h-96a47.949 47.949 0 0 0 -10.356-29.747l106.356-96.227zm32 0h-16v-16h16zm16 0v-24a8 8 0 0 0 -8-8h-24v-84.352l73.485 116.352zm-136-88h-16v-16h16zm8 120h16v16h-16zm176-104h-16v-16h16z"/></g></svg>