<svg height="512" viewBox="0 0 512 512" width="512" xmlns="http://www.w3.org/2000/svg"><g id="Filled_outline" data-name="Filled outline"><path d="m128 448h63.04l.96 40h175.36a149.266 149.266 0 0 1 36.466-97.757l41.63-48.033a174.142 174.142 0 0 0 42.544-114.05c0-112.755-91.4-204.16-204.16-204.16-112.755 0-204.16 91.406-204.16 204.16v51.84a8 8 0 0 1 -8 8h-23.68a24 24 0 0 0 -24 24 24 24 0 0 0 24 24h24a8 8 0 0 1 8 8v56a48 48 0 0 0 48 48z" fill="#426887"/><path d="m408 208v64a49.071 49.071 0 0 1 -.66 8 47.5 47.5 0 0 1 -5.77 16 47.946 47.946 0 0 1 -41.57 24h-72v-112z" fill="#ffb431"/><path d="m440 200a48 48 0 0 1 -48 48h-224a48 48 0 0 1 -7.23-95.46 47.979 47.979 0 0 1 47.23-56.54 48.03 48.03 0 0 1 24.87 6.94 47.628 47.628 0 0 1 3.79-11.54v-.01a47.988 47.988 0 0 1 90.47 11.55 47.981 47.981 0 0 1 72.19 49.07c-.03.18-.06.35-.09.53a48.016 48.016 0 0 1 40.77 47.46z" fill="#4db6e4"/><g fill="#426887"><path d="m227.68 136a19.68 19.68 0 1 0 19.68 19.68 19.7 19.7 0 0 0 -19.68-19.68z"/><path d="m339.36 136a19.36 19.36 0 1 0 19.36 19.36 19.382 19.382 0 0 0 -19.36-19.36z"/><path d="m288 192h-8a8.009 8.009 0 0 1 -8-8h-16a24.027 24.027 0 0 0 24 24h8a24.027 24.027 0 0 0 24-24h-16a8.009 8.009 0 0 1 -8 8z"/></g><path d="m328 320h-48l-24.89-56-7.11-16h48l7.11 16z" fill="#de5540"/><path d="m303.11 264h-48l-7.11-16h48z" fill="#d6513c"/><path d="m125.689 163.315a56 56 0 0 0 42.311 92.685h74.8l29.888 67.249a8 8 0 0 0 7.312 4.751h80a55.992 55.992 0 0 0 56-56v-21.414a56 56 0 0 0 -8.05-104.274q.05-1.16.05-2.312a56.019 56.019 0 0 0 -75.833-52.379 56.01 56.01 0 0 0 -104.334 0 56.022 56.022 0 0 0 -75.833 52.379q0 1.152.05 2.312a56.086 56.086 0 0 0 -26.361 17.003zm159.511 148.685-24.888-56h30.488l24.888 56zm74.8 0h-26.8l-10.667-24h74.152a39.843 39.843 0 0 1 -36.685 24zm40-40h-84.579l-7.111-16h83.69a56.14 56.14 0 0 0 8-.581zm-238.457-111.473 22.644-.527-.374-16-15.8.369c0-.123-.009-.248-.009-.371a40.01 40.01 0 0 1 58.268-35.591 42.32 42.32 0 0 0 27.4 25.748l4.664-15.305a26.4 26.4 0 0 1 -17.191-16.325 40 40 0 0 1 78.135 1.911 8 8 0 0 0 12.008 5.337 40.01 40.01 0 0 1 60.712 34.227c0 .423-.015.851-.029 1.277a30.708 30.708 0 0 0 -23.971 29.956v.767h16v-.767a14.672 14.672 0 0 1 14.6-14.682 40 40 0 0 1 -6.6 79.449h-168a32.082 32.082 0 0 1 -31.36-25.591l-15.68 3.182a47.657 47.657 0 0 0 11.308 22.409h-20.268a40 40 0 0 1 -6.457-79.473zm46.457-4.847a19.68 19.68 0 1 1 19.68 19.68 19.7 19.7 0 0 1 -19.68-19.68zm112-.32a19.36 19.36 0 1 1 19.36 19.36 19.382 19.382 0 0 1 -19.36-19.36zm-64 28.64h16a8.009 8.009 0 0 0 8 8h8a8.009 8.009 0 0 0 8-8h16a24.027 24.027 0 0 1 -24 24h-8a24.027 24.027 0 0 1 -24-24zm-143.136-52.069-13.935-7.862a212.64 212.64 0 0 1 184.911-108.069c116.985 0 212.16 95.174 212.16 212.16a182.167 182.167 0 0 1 -44.5 119.289l-22.352 25.79-12.091-10.478 22.353-25.791a166.161 166.161 0 0 0 40.59-108.81c0-108.16-88-196.16-196.16-196.16a196.616 196.616 0 0 0 -170.976 99.931zm-96.864 180.069a32.036 32.036 0 0 1 32-32h23.68v-51.84a210.519 210.519 0 0 1 18.811-87.46l14.574 6.6a194.627 194.627 0 0 0 -17.385 80.86v51.84a16.019 16.019 0 0 1 -16 16h-23.68a16 16 0 0 0 0 32h24a16.019 16.019 0 0 1 16 16v15.144a74.087 74.087 0 0 0 47.352-21.65l3.63-3.631 11.318 11.314-3.631 3.631a89.98 89.98 0 0 1 -58.669 26.375v24.817a40.045 40.045 0 0 0 40 40h128v16h-56.765l.576 24h159.752a157.3 157.3 0 0 1 38.217-95l7.785-8.982 12.09 10.48-7.784 8.981a141.28 141.28 0 0 0 -34.511 92.521 8 8 0 0 1 -8 8h-175.36a8 8 0 0 1 -8-7.808l-.771-32.192h-55.229a56.063 56.063 0 0 1 -56-56v-56h-24a32.036 32.036 0 0 1 -32-32zm358.715 76.59-13.1-9.18a190.008 190.008 0 0 1 11.985-15.365l41.629-48.033a134.548 134.548 0 0 0 8.414-10.772l13.1 9.192a150.887 150.887 0 0 1 -9.418 12.059l-41.63 48.033a174.072 174.072 0 0 0 -10.98 14.066zm57.02-96.407a134.8 134.8 0 0 0 7.024-15.1l14.9 5.834a150.78 150.78 0 0 1 -7.861 16.9z"/></g></svg>