<svg height="512" viewBox="0 0 512 512" width="512" xmlns="http://www.w3.org/2000/svg"><g id="Filled_outline" data-name="Filled outline"><path d="m392 425.21a62.787 62.787 0 0 1 -62.79 62.79h-242.42a62.793 62.793 0 0 1 -54.02-94.8l76.56-129.2 42.67-72v-128h-4a20 20 0 0 1 -20-20 20 20 0 0 1 20-20h120a20 20 0 0 1 20 20 20 20 0 0 1 -20 20h-4v128l42.67 72 76.56 129.2a62.709 62.709 0 0 1 8.77 32.01z" fill="#4db6e4"/><path d="m176 64h88v16h-88z" fill="#3ba5d3"/><path d="m392 425.21a62.787 62.787 0 0 1 -62.79 62.79h-242.42a62.793 62.793 0 0 1 -54.02-94.8l76.56-129.2h197.34l76.56 129.2a62.709 62.709 0 0 1 8.77 32.01z" fill="#348ed8"/><path d="m368 192a120.073 120.073 0 0 0 -114.362 156.434l-29.638 35.566 44.1-5.512a120 120 0 1 0 99.9-186.488z" fill="#ffb431"/><path d="m248 416a24 24 0 1 0 24 24 24.027 24.027 0 0 0 -24-24z" fill="#459ce5"/><path d="m108 408a20 20 0 1 0 20 20 20.023 20.023 0 0 0 -20-20z" fill="#459ce5"/><path d="m36.733 475.267a70.8 70.8 0 0 1 -10.846-86.144l96.505-162.854 13.764 8.157-12.784 21.574h104.628v16h-114.109l-74.239 125.278a54.791 54.791 0 0 0 47.138 82.722h242.42a54.478 54.478 0 0 0 49.231-30.706l14.366 7.044a70.374 70.374 0 0 1 -63.597 39.662h-242.42a70.327 70.327 0 0 1 -50.057-20.733zm219.267-283.267a8 8 0 0 0 1.118 4.08l8.4 14.17 13.764-8.16-7.282-12.283v-118.089a28 28 0 0 0 -4-55.718h-120a28 28 0 0 0 -4 55.715v118.093l-12.17 20.535 13.764 8.157 13.288-22.421a8 8 0 0 0 1.118-4.079v-128a8 8 0 0 0 -8-8h-4a12 12 0 0 1 0-24h120a12 12 0 0 1 0 24h-92v16h80zm-135.318 99.922-7.564 12.765 13.764 8.156 7.564-12.765zm-14.222 24-42.665 72 13.765 8.156 42.665-72zm385.593 97.134-12.4-10.112a143.914 143.914 0 0 1 -66.178 45.73l5.048 15.183a159.9 159.9 0 0 0 73.53-50.801zm-208.27-237.123 8.433 13.6a144.063 144.063 0 0 1 189.472 34.079l12.624-9.83a160.062 160.062 0 0 0 -210.529-37.846zm209.923 160.312a128 128 0 1 0 -248.962 10.366l-26.89 32.267a8 8 0 0 0 7.138 13.06l39.3-4.912a128.035 128.035 0 0 0 223.808-30.663l-15.008-5.546a112.035 112.035 0 0 1 -198.341 23.233 8 8 0 0 0 -7.647-3.5l-23.98 3 16.66-19.991a8 8 0 0 0 1.477-7.548 111.995 111.995 0 1 1 216.731-12.777zm-45.706-8.245h-16v-27.056l-24-12-24 12v22.112l27.578 13.789-7.156 14.31-28.422-14.211-24 12v19.056h-16v-19.056l-24-12-20.422 10.211-7.156-14.31 19.578-9.789v-22.112l-27.578-13.789 7.156-14.31 28.422 14.211 24-12v-19.056h16v19.056l24 12 24-12v-19.056h16v19.056l24 12 20.422-10.211 7.156 14.31-19.578 9.789zm-80-27.056-24-12-24 12v22.112l24 12 24-12zm48-76.944h-16v16h16zm-64 0h-16v16h16zm-16 176h16v-16h-16zm-24-152h-16v16h16zm88 136h16v-16h-16zm-112-8h16v-16h-16zm144-16h16v-16h-16zm-240-272h-16v16h16zm-16 104h16v-72h-16zm72 224a24 24 0 1 1 -24 24 24.027 24.027 0 0 1 24-24zm0 16a8 8 0 1 0 8 8 8.009 8.009 0 0 0 -8-8zm-80-96h-16v16h16zm24 72v-16h-16v16zm-104 20a20 20 0 1 1 20 20 20.023 20.023 0 0 1 -20-20zm16 0a4 4 0 1 0 4-4 4 4 0 0 0 -4 4zm112-124v-16h-16v16zm-64 152h16v-16h-16z"/></g></svg>