<svg height="512" viewBox="0 0 512 512" width="512" xmlns="http://www.w3.org/2000/svg"><g id="Filled_outline" data-name="Filled outline"><rect fill="#96b268" height="280" rx="32" width="368" x="120" y="24"/><path d="m120 256h368a0 0 0 0 1 0 0v16a32 32 0 0 1 -32 32h-304a32 32 0 0 1 -32-32v-16a0 0 0 0 1 0 0z" fill="#dfdfdd"/><path d="m24 336h464v152h-464z" fill="#844e3a"/><path d="m336 304h-64l-16 56h96z" fill="#d5d5d3"/><path d="m200 64h48a24 24 0 0 1 24 24v48a48 48 0 0 1 -48 48 48 48 0 0 1 -48-48v-48a24 24 0 0 1 24-24z" fill="#fdc8a2"/><path d="m240 56h-56a16 16 0 0 0 -16 16 16 16 0 0 0 16 16h64l24 24v-24a32 32 0 0 0 -32-32z" fill="#844e3a"/><path d="m280 144h-8v-32h8a16 16 0 0 1 16 16 16 16 0 0 1 -16 16z" fill="#fdbf92"/><path d="m168 112h8v32h-8a16 16 0 0 1 -16-16 16 16 0 0 1 16-16z" fill="#fdbf92"/><path d="m264 184h-80a32 32 0 0 0 -32 32v40h144v-40a32 32 0 0 0 -32-32z" fill="#3f6380"/><path d="m312 184h48a0 0 0 0 1 0 0v16a16 16 0 0 1 -16 16h-48a0 0 0 0 1 0 0v-16a16 16 0 0 1 16-16z" fill="#fdc8a2"/><path d="m296 216h40v40h-40z" fill="#426887"/><path d="m440 152h-48l-16 16-8-16h-24a16 16 0 0 1 -16-16v-64a16 16 0 0 1 16-16h96a16 16 0 0 1 16 16v64a16 16 0 0 1 -16 16z" fill="#ffb431"/><path d="m136 392h-112v-100a68 68 0 0 1 68-68 68 68 0 0 1 68 68v12h8a16 16 0 0 1 16 16 16 16 0 0 1 -16 16h-8v32a24 24 0 0 1 -24 24z" fill="#fdc8a2"/><path d="m24 360h48l8-32h-8a16 16 0 0 1 -16-16 16 16 0 0 1 16-16h16a36.612 36.612 0 0 0 8.845-37.466l-.845-2.534h24a40 40 0 0 0 40-40h-72a64 64 0 0 0 -64 64z" fill="#844e3a"/><path d="m208 392h176v64h-176z" fill="#dfdfdd"/><path d="m170.334 392h-146.334v96h136v-56l24 56h64l-34.733-69.466a48 48 0 0 0 -42.933-26.534z" fill="#de5540"/><path d="m351.89 445.62-3.89 10.38-12 32h-56l12-32 8.11-21.62a16 16 0 0 1 14.98-10.38h21.82a16 16 0 0 1 14.98 21.62z" fill="#fdc8a2"/><path d="m348 456-12 32h-56l12-32z" fill="#de5540"/><circle cx="120" cy="312" fill="#844e3a" r="16"/><path d="m496 272v-216a40.045 40.045 0 0 0 -40-40h-304a40.045 40.045 0 0 0 -40 40v136h16v-136a24.027 24.027 0 0 1 24-24h304a24.027 24.027 0 0 1 24 24v192h-136v-24a24.028 24.028 0 0 0 24-24v-16a8 8 0 0 0 -8-8h-48a24 24 0 0 0 -20.285 11.2 39.855 39.855 0 0 0 -27.715-11.2h-.862a56.052 56.052 0 0 0 14.521-24h2.341a24 24 0 0 0 0-48v-16a40.045 40.045 0 0 0 -40-40h-56a23.986 23.986 0 0 0 -16 41.869v14.131a24 24 0 0 0 0 48h2.341a56.052 56.052 0 0 0 14.521 24h-.862a40.031 40.031 0 0 0 -30 13.543l12 10.586a24.02 24.02 0 0 1 18-8.129h80a24.027 24.027 0 0 1 24 24v32h-24v-32h-16v32h-48v-32h-16v32h-8v16h304v8a24.027 24.027 0 0 1 -24 24h-248v16h53.394l-4.571 16h-56.823v16h52.251l-3.943 13.8a8 8 0 0 0 7.692 10.2h96a8 8 0 0 0 7.692-10.2l-3.943-13.8h124.251v80h16v-88a8 8 0 0 0 -8-8h-136.823l-4.571-16h109.394a40.045 40.045 0 0 0 40-40zm-216-152a8 8 0 0 1 0 16zm-112 16a8 8 0 0 1 0-16zm8-64a8.009 8.009 0 0 1 8-8h56a24.028 24.028 0 0 1 24 24v4.686l-10.343-10.343a8 8 0 0 0 -5.657-2.343h-64a8.009 8.009 0 0 1 -8-8zm48 104a40.045 40.045 0 0 1 -40-40v-40h60.687l19.313 19.314v20.686a40.045 40.045 0 0 1 -40 40zm104 72h-24v-24h24zm-24-40v-8a8.009 8.009 0 0 1 8-8h40v8a8.009 8.009 0 0 1 -8 8zm-37.395 144 11.429-40h51.932l11.434 40zm229.395 136v-48h-16v40h-132.456s7.949-21.2 7.95-21.2l3.886-10.362a24 24 0 0 0 -22.47-32.438h-21.82a24.113 24.113 0 0 0 -22.471 15.57l-18.163 48.43h-21.512l-8-16h27.056v-16h-35.056l-16.522-33.044a57 57 0 0 0 -4.422-7.379v-7.577h160v48h-8v16h16a8 8 0 0 0 8-8v-64a8 8 0 0 0 -8-8h-176a8 8 0 0 0 -8 8v.444a55.9 55.9 0 0 0 -29.666-8.444h-6.634a31.793 31.793 0 0 0 4.3-16v-24a24 24 0 0 0 0-48v-4a76.032 76.032 0 0 0 -13.286-42.9 47.821 47.821 0 0 0 13.286-33.1 8 8 0 0 0 -8-8h-72a72.262 72.262 0 0 0 -62.362 35.994l13.849 8.012a56.217 56.217 0 0 1 48.513-28.006h62.987a32.054 32.054 0 0 1 -30.987 24h-24a8 8 0 0 0 -7.589 10.53l.844 2.533a28.433 28.433 0 0 1 -4.809 26.937h-12.446a24 24 0 0 0 -2.221 47.9l-4.025 16.1h-33.754v-72a56.18 56.18 0 0 1 1.949-14.707l-15.441-4.193a72.161 72.161 0 0 0 -2.508 18.9v208a8 8 0 0 0 8 8h464a8 8 0 0 0 8-8zm-464-120h40a8 8 0 0 0 7.761-6.06l8-32a8 8 0 0 0 -7.761-9.94h-8a8 8 0 0 1 0-16h16a8 8 0 0 0 5.657-2.343 44.331 44.331 0 0 0 12.659-37.657h13.684a47.684 47.684 0 0 0 21.891-5.3 60.015 60.015 0 0 1 10.109 33.3v12a8 8 0 0 0 8 8h8a8 8 0 1 1 0 16h-8a8 8 0 0 0 -8 8v14.942a30.437 30.437 0 0 1 -13.656-7.912l-4.687-4.687-11.314 11.314 4.687 4.687a46.277 46.277 0 0 0 24.97 12.962v.694a16.019 16.019 0 0 1 -16 16h-104zm136 112v-9.024l3.867 9.024zm21.275 0-21.921-51.151a8 8 0 0 0 -15.354 3.151v48h-120v-80h138.334a39.782 39.782 0 0 1 35.777 22.111l28.945 57.889zm141.181 0h-38.912l6-16h38.91zm13.944-37.193-1.946 5.193h-38.909l4.055-10.81a8.036 8.036 0 0 1 7.49-5.19h21.82a8 8 0 0 1 7.491 10.807zm-128.4-314.807h-16v-16h16zm16-16h16v16h-16zm4.422 24.845 7.156 14.31a43.989 43.989 0 0 1 -39.156 0l7.156-14.31a27.917 27.917 0 0 0 24.844 0zm126.634 23.155 5.789 11.578a8 8 0 0 0 5.874 4.318 7.914 7.914 0 0 0 1.281.104 8 8 0 0 0 5.657-2.343l13.656-13.657h44.687a24.027 24.027 0 0 0 24-24v-64a24.027 24.027 0 0 0 -24-24h-96a24.027 24.027 0 0 0 -24 24v64a24.027 24.027 0 0 0 24 24zm-27.056-24v-64a8.009 8.009 0 0 1 8-8h96a8.009 8.009 0 0 1 8 8v64a8.009 8.009 0 0 1 -8 8h-48a8 8 0 0 0 -5.657 2.343l-8.152 8.152-3.036-6.073a8 8 0 0 0 -7.155-4.422h-24a8.009 8.009 0 0 1 -8-8zm96-40h-48v-16h48zm-64 0h-16v-16h16zm64 32h-80v-16h80zm-312 200a16 16 0 1 1 16-16 16.019 16.019 0 0 1 -16 16zm112 104v-16h16v16zm32 0v-16h16v16zm-176-304h-72v-16h72zm-59.885-72.118-16-8.889 7.77-13.986 16 8.889zm20.57-6.875 43.2 24-7.77 13.986-43.2-24zm-28.8 157.986-7.77-13.986 16-8.889 7.77 13.986zm64.23-53.986 7.77 13.986-43.2 24-7.77-13.986z"/></g></svg>