<?xml version="1.0" encoding="UTF-8"?>
<svg xmlns="http://www.w3.org/2000/svg" viewBox="0 0 512 512" width="512" height="512"><g id="Filled_outline" data-name="Filled outline"><path d="M40,486.383a1.616,1.616,0,0,1,1.055-1.509A48.163,48.163,0,0,0,65.58,464a48.067,48.067,0,0,0,0-48,48.233,48.233,0,0,0-24.53-20.885,1.611,1.611,0,0,1-1.05-1.5h0A1.612,1.612,0,0,1,41.612,392H439.153c26.6,0,49.04,21.761,48.846,48.358A48,48,0,0,1,440,488H41.617A1.617,1.617,0,0,1,40,486.383Z" style="fill:#f1ddc1"/><path d="M488,440a48,48,0,0,1-48,48H232a48.015,48.015,0,0,0,41.58-72,48.343,48.343,0,0,0-7.64-9.94A47.813,47.813,0,0,0,232,392H440a47.975,47.975,0,0,1,48,48Z" style="fill:#844e3a"/><path d="M481.58,416h-208a48.343,48.343,0,0,0-7.64-9.94A47.813,47.813,0,0,0,232,392H440A48,48,0,0,1,481.58,416Z" style="fill:#784533"/><path d="M312,488h0a40,40,0,0,0,40-40V432a40,40,0,0,0-40-40H280a40,40,0,0,1,40,40v16a40,40,0,0,1-40,40h32Z" style="fill:#6a3f2e"/><path d="M416,488h0a40,40,0,0,0,40-40V432a40,40,0,0,0-40-40H384a40,40,0,0,1,40,40v16a40,40,0,0,1-40,40h32Z" style="fill:#6a3f2e"/><path d="M200,488l-24-16-24,16V432a16,16,0,0,1,16-16h48a16,16,0,0,0-16,16Z" style="fill:#de5540"/><polygon points="384 216 384 264 120 264 88 248 88 232 120 216 384 216" style="fill:#426887"/><polygon points="120 264 88 248 88 232 120 216 120 264" style="fill:#ffb431"/><rect x="384" y="216" width="32" height="48" style="fill:#ffb431"/><path d="M416,216h16a24,24,0,0,1,24,24v0a24,24,0,0,1-24,24H416a0,0,0,0,1,0,0V216A0,0,0,0,1,416,216Z" style="fill:#de5540"/><rect x="64" y="232" width="24" height="16" style="fill:#426887"/><path d="M359.85,216q-1.395,3.1-2.93,6.16l-10.21,20.42a38.75,38.75,0,0,1-62.06,10.07,17.889,17.889,0,0,0-25.3,0,38.757,38.757,0,0,1-62.06-10.07l-10.21-20.42q-1.53-3.06-2.93-6.16Z" style="fill:#3c6180"/><path d="M464,390.99a32.006,32.006,0,0,1,0-61.98V328H72a32,32,0,0,0,0,64H464Z" style="fill:#f1ddc1"/><path d="M184,18h20a60,60,0,0,1,60,60v0a0,0,0,0,1,0,0H244a60,60,0,0,1-60-60v0A0,0,0,0,1,184,18Z" style="fill:#96b268"/><path d="M296.051,264h0a38.752,38.752,0,0,1-27.4-11.35h0a17.891,17.891,0,0,0-25.3,0h0a38.752,38.752,0,0,1-27.4,11.35h0a38.75,38.75,0,0,1-34.659-21.421l-10.209-20.417A180.741,180.741,0,0,1,152,141.333h0A53.333,53.333,0,0,1,205.333,88h0A53.335,53.335,0,0,1,248,109.333h0a10,10,0,0,0,16,0h0A53.335,53.335,0,0,1,306.667,88h0A53.333,53.333,0,0,1,360,141.333h0a180.741,180.741,0,0,1-19.081,80.829L330.71,242.579A38.75,38.75,0,0,1,296.051,264Z" style="fill:#de5540"/><path d="M336,408l16-8,16,8V368a16,16,0,0,0-16-16H320a16,16,0,0,1,16,16Z" style="fill:#de5540"/><path d="M281.37,382.63A31.9,31.9,0,0,0,304,392H72a32,32,0,1,1,0-64H304a32,32,0,0,0-22.63,54.63Z" style="fill:#426887"/><path d="M304,328a32,32,0,0,0-27.72,16h-232A32,32,0,0,1,72,328Z" style="fill:#3c6180"/><path d="M48,326.99a32.006,32.006,0,0,0,0-61.98V264H440a32,32,0,0,1,0,64H48Z" style="fill:#f1ddc1"/><path d="M472,296a32,32,0,0,0-32-32H208a32,32,0,0,1,32,32h0a32,32,0,0,1-32,32H440a32,32,0,0,0,32-32Z" style="fill:#844e3a"/><path d="M144,344l-16-8-16,8V304a16,16,0,0,1,16-16h32a16,16,0,0,0-16,16Z" style="fill:#de5540"/><path d="M477.134,398.132A8,8,0,0,0,472,384a24,24,0,0,1,0-48,8,8,0,0,0,0-16H427.7A31.793,31.793,0,0,0,432,304V288a31.793,31.793,0,0,0-4.305-16H440a24.026,24.026,0,0,1,23.244,30.006l15.494,3.988a40.022,40.022,0,0,0-21.658-46.155A31.974,31.974,0,0,0,432,208H355.8A189.792,189.792,0,0,0,368,141.333,61.3,61.3,0,0,0,264,97.318V90.6a62.121,62.121,0,0,1,42.53-59.007l-5.06-15.178a78.09,78.09,0,0,0-42.045,33.443A56.076,56.076,0,0,0,208,16H192a8,8,0,0,0-8,8,56.063,56.063,0,0,0,56,56h8.729A78.727,78.727,0,0,0,248,90.6v6.721A61.662,61.662,0,0,0,205.333,80a60.881,60.881,0,0,0-43.8,18.4l11.426,11.2A44.994,44.994,0,0,1,205.333,96,45.554,45.554,0,0,1,241.6,114.134a18,18,0,0,0,28.8,0,45.334,45.334,0,0,1,81.6,27.2,173.625,173.625,0,0,1-18.236,77.251L323.555,239a30.75,30.75,0,0,1-49.247,7.992,25.89,25.89,0,0,0-36.616,0A30.75,30.75,0,0,1,188.445,239l-10.209-20.417A173.625,173.625,0,0,1,160,141.333a45,45,0,0,1,3.769-18.13L149.106,116.8A60.916,60.916,0,0,0,144,141.333,189.792,189.792,0,0,0,156.2,208H120a8,8,0,0,0-4.116,1.14L77.784,232H64v16H77.784l13.333,8H40a8,8,0,0,0,0,16,24,24,0,0,1,0,48,8,8,0,0,0,0,16h.022a39.912,39.912,0,0,0,0,48H24a8,8,0,0,0,0,16,39.707,39.707,0,0,1,28.283,11.717,40.243,40.243,0,0,1,9.446,14.953A40,40,0,0,1,24,480a8,8,0,0,0,0,16H440a55.919,55.919,0,0,0,46.662-25.029l-13.324-8.858a39.984,39.984,0,0,1-19.545,15.425A47.745,47.745,0,0,0,464,448V432a47.75,47.75,0,0,0-10.217-29.552A40.069,40.069,0,0,1,480,440a40.511,40.511,0,0,1-.554,6.676l15.78,2.648A56.6,56.6,0,0,0,496,440,55.868,55.868,0,0,0,477.134,398.132ZM240,64a40.071,40.071,0,0,1-39.2-32H208a40.071,40.071,0,0,1,39.2,32ZM424,224h8a16,16,0,0,1,0,32h-8Zm-32,0h16v32H392Zm-54.135,22.157,10.209-20.417c.288-.576.556-1.161.838-1.74H376v32H331.289A47.193,47.193,0,0,0,337.865,246.157ZM291.7,272H400a16.019,16.019,0,0,1,16,16v16a16.019,16.019,0,0,1-16,16H291.7A31.793,31.793,0,0,0,296,304V288A31.793,31.793,0,0,0,291.7,272ZM304,336H440.019a39.845,39.845,0,0,0-7.211,16H296v16h24a8.009,8.009,0,0,1,8,8v8H304a24,24,0,0,1,0-48Zm70.624,32H432.8a39.559,39.559,0,0,0,7.19,16H376v-8A23.889,23.889,0,0,0,374.624,368ZM256,255.41a9.894,9.894,0,0,1,3.345.59h-6.69A9.894,9.894,0,0,1,256,255.41ZM239.978,272H264a16.019,16.019,0,0,1,16,16v16a16.019,16.019,0,0,1-16,16H239.978a39.912,39.912,0,0,0,0-48ZM248,336h24.022a39.968,39.968,0,0,0-.028,48H248a16.019,16.019,0,0,1-16-16V352A16.019,16.019,0,0,1,248,336ZM128,224h35.088c.282.579.55,1.164.838,1.74l10.209,20.417A47.193,47.193,0,0,0,180.711,256H128Zm-16,6.129v19.742L95.549,240ZM208,272a24,24,0,0,1,0,48H152v-8a8.009,8.009,0,0,1,8-8h56V288H79.2a39.565,39.565,0,0,0-7.19-16Zm12.305,112H112a16.019,16.019,0,0,1-16-16V352a16,16,0,0,1,8-13.835V344a8,8,0,0,0,11.578,7.155L128,344.944l12.422,6.211A8,8,0,0,0,152,344v-8h68.305A31.793,31.793,0,0,0,216,352v16A31.793,31.793,0,0,0,220.305,384ZM120,331.056V312a8.009,8.009,0,0,1,8-8h9.371A23.882,23.882,0,0,0,136,312v19.056l-4.422-2.211a8,8,0,0,0-7.156,0ZM79.192,304h26.184A23.889,23.889,0,0,0,104,312v8H71.981A39.845,39.845,0,0,0,79.192,304ZM48,360a23.991,23.991,0,0,1,24-24H84.305A31.793,31.793,0,0,0,80,352v16a31.793,31.793,0,0,0,4.305,16H72a23.991,23.991,0,0,1-24-24Zm96,120H63.182a55.825,55.825,0,0,0,11.411-16H144Zm0-40v8H79.422a55.652,55.652,0,0,0,0-16h65.954A23.889,23.889,0,0,0,144,440Zm48,0v33.052l-11.562-7.708a8,8,0,0,0-8.876,0L160,473.052V440a8.009,8.009,0,0,1,8-8h25.371A23.882,23.882,0,0,0,192,440Zm40,40H208V464h40V448H208v-8a8.009,8.009,0,0,1,8-8h32V416H74.594A56.482,56.482,0,0,0,63.6,400.406c-.137-.136-.273-.271-.411-.406H232a40,40,0,0,1,0,80Zm80-32a32.036,32.036,0,0,1-32,32h-8.825c.138-.136.283-.263.42-.4a56,56,0,0,0,.006-79.194c-.14-.139-.286-.268-.426-.406H280a32.015,32.015,0,0,1,32,32Zm32,0a32.082,32.082,0,0,1-25.592,31.36l.13.64h-2.8A47.8,47.8,0,0,0,328,448V432a47.641,47.641,0,0,0-12.236-32h2.773l-.131.642A31.581,31.581,0,0,1,328,404.287V408a7.985,7.985,0,0,0,11.281,7.281A31.923,31.923,0,0,1,344,432Zm-1.371-80H352a8.009,8.009,0,0,1,8,8v19.056l-4.422-2.211a8,8,0,0,0-7.156,0L344,395.056V376A23.882,23.882,0,0,0,342.629,368ZM416,448a32.036,32.036,0,0,1-32,32H347.73A48,48,0,0,0,360,448V432a47.893,47.893,0,0,0-5.161-21.636l9.583,4.791A8,8,0,0,0,376,408v-8h8a32.036,32.036,0,0,1,32,32Zm32,0a32.04,32.04,0,0,1-28.042,31.746A47.791,47.791,0,0,0,432,448V432a47.791,47.791,0,0,0-12.042-31.746A32.04,32.04,0,0,1,448,432ZM182.452,122.992l12.479,10.016A13.167,13.167,0,0,0,192,141.333H176A29.41,29.41,0,0,1,182.452,122.992Zm-5.2,38.019,15.871-2.022a141.593,141.593,0,0,0,10.292,37.862l-14.709,6.3A157.578,157.578,0,0,1,177.254,161.011Z"/></g></svg>
