<svg height="512" viewBox="0 0 512 512" width="512" xmlns="http://www.w3.org/2000/svg"><g id="Filled_outline" data-name="Filled outline"><path d="m240.002 15.993h32v384h-32z" fill="#f4970c" transform="matrix(.817 .577 -.577 .817 166.754 -109.549)"/><path d="m240 408h32v40h-32z" fill="#f4970c"/><path d="m368 488h-224a40 40 0 0 1 40-40h144a40 40 0 0 1 40 40z" fill="#ffb431"/><path d="m399.83 216a144.559 144.559 0 1 1 -8.2-56.48 144.044 144.044 0 0 1 8.2 56.48z" fill="#348ed8"/><path d="m341.54 24-19.048 26.278c64.213 25.943 109.437 88.073 109.437 160.605 0 95.855-78.974 173.561-176.393 173.561a177.181 177.181 0 0 1 -132.5-59.008l-19.036 26.264a209.44 209.44 0 0 0 151.536 64.3c115.131 0 208.464-91.834 208.464-205.117 0-83.107-50.24-154.656-122.46-186.883z" fill="#ffb431"/><g fill="#96b268"><path d="m248 208h-40v32h-56l-38.68-51.57a144.484 144.484 0 0 1 46.68-87.83v83.4h32v-24h32z"/><path d="m248 312h-24l-16-40v-32h40z"/><path d="m312 75.32v28.68h-24l-16 24h-32v-63.15a143.693 143.693 0 0 1 72 10.47z"/><path d="m399.83 216h-31.83l-16-32h-56v-32l40-24h39.81a144.559 144.559 0 0 1 24.02 88z"/><path d="m280 272v-40l16-16h32l16 32h24l-24 32v32h-40v-40z"/></g><path d="m423.2 102.807a194.489 194.489 0 0 1 -3.03 220.57l13.058 9.246a210.489 210.489 0 0 0 3.272-238.706 215.9 215.9 0 0 0 -91.7-77.223 8 8 0 0 0 -9.738 2.611l-19.048 26.278a8 8 0 0 0 3.48 12.112c3.41 1.378 6.754 2.876 10.047 4.46l-6.6 9.359c-2.573-1.26-5.174-2.473-7.829-3.594a151.86 151.86 0 0 0 -190.758 64.085l13.863 7.989a136.12 136.12 0 0 1 13.783-19.645v63.651a8 8 0 0 0 8 8h32a8 8 0 0 0 8-8v-16h19.056l16 32h-27.056a8 8 0 0 0 -8 8v24h-44l-34.26-45.677a136.5 136.5 0 0 1 8.965-31.213l-14.74-6.221a151.937 151.937 0 0 0 33.921 167.858l-10.113 14.329q-5.61-5.221-10.772-10.971a8 8 0 0 0 -12.442.635l-19.037 26.26a8 8 0 0 0 .707 10.236 217.166 217.166 0 0 0 133.771 65.517v17.247h-48a48.054 48.054 0 0 0 -48 48 8 8 0 0 0 8 8h224a8 8 0 0 0 8-8 48.054 48.054 0 0 0 -48-48h-48v-17.356a216.8 216.8 0 0 0 142.58-76.21l-12.264-10.278a202.4 202.4 0 0 1 -295.85 14.734l9.381-12.941a185.911 185.911 0 0 0 131.689 54.494c101.675 0 184.393-81.447 184.393-181.56a178.619 178.619 0 0 0 -32.068-102.337 183.584 183.584 0 0 0 -73.056-61.624l9.341-12.886a199.77 199.77 0 0 1 79.054 68.771zm-95.2 353.193a32.054 32.054 0 0 1 30.987 24h-205.974a32.054 32.054 0 0 1 30.987-24zm-80-32.141c2.506.084 5.016.141 7.536.141 2.831 0 5.65-.073 8.464-.181v16.181h-16zm0-351.683a136.139 136.139 0 0 1 56 8.543v15.281h-16a8 8 0 0 0 -6.656 3.562l-13.625 20.438h-19.719zm-32 175.824h24v56h-10.584l-13.416-33.541zm-50.811 102.56q-6.777-4.238-13.155-9.107l9.966-14.118a152.646 152.646 0 0 0 13.087 9.205zm204.211-261.646a167.561 167.561 0 0 1 25.321 28.758 162.693 162.693 0 0 1 29.21 93.211c0 91.29-75.541 165.56-168.393 165.56a170.634 170.634 0 0 1 -76.319-18.011l9.92-14.057a151.97 151.97 0 0 0 173.042-245.229zm-65.4 175.086h-16v-28.687l11.313-11.313h23.743l13.789 27.578a8 8 0 0 0 7.155 4.422h8l-14.4 19.2a8 8 0 0 0 -1.6 4.8v24h-24v-32a8 8 0 0 0 -8-8zm88.051-56h-19.107l-13.789-27.578a8 8 0 0 0 -7.155-4.422h-48v-19.471l34.216-20.529h33.232a137.166 137.166 0 0 1 12.652 26.209 135.466 135.466 0 0 1 7.951 45.791zm-48.343-138.171c4.575 2.765 9.019 5.723 13.295 8.9l-6.923 9.817a151.685 151.685 0 0 0 -13.08-9.206zm16.073 50.171h-23.781a8 8 0 0 0 -4.116 1.14l-40 24a8 8 0 0 0 -3.884 6.86v32a8 8 0 0 0 8 8h51.056l13.789 27.578a8 8 0 0 0 7.155 4.422h23.084a135.761 135.761 0 0 1 -39.084 80.388v-21.721l22.4-29.867a8 8 0 0 0 -6.4-12.8h-19.056l-13.789-27.578a8 8 0 0 0 -7.155-4.422h-32a8 8 0 0 0 -5.657 2.343l-16 16a8 8 0 0 0 -2.343 5.657v40a8 8 0 0 0 8 8h16v32a8 8 0 0 0 8 8h29.174a136.463 136.463 0 0 1 -31.4 16.037c-70.621 25.222-148.6-11.709-173.826-82.327a135.176 135.176 0 0 1 -7.95-43.05l25.602 34.14a8 8 0 0 0 6.4 3.2h48v24a8 8 0 0 0 .572 2.971l16 40a8 8 0 0 0 7.428 5.029h24a8 8 0 0 0 8-8v-72a8 8 0 0 0 -8-8h-32v-16h32a8 8 0 0 0 7.155-11.578l-24-48a8 8 0 0 0 -7.155-4.422h-32a8 8 0 0 0 -8 8v16h-16v-71.761a134.985 134.985 0 0 1 42.271-24.355 137.279 137.279 0 0 1 21.729-5.798v53.914a8 8 0 0 0 8 8h32a8 8 0 0 0 6.656-3.562l13.625-20.438h19.719a8 8 0 0 0 8-8v-16.027a135.323 135.323 0 0 1 39.781 32.027zm-173.864-64.731a168.337 168.337 0 0 0 -15.869 8.352l-8.2-13.74a184.326 184.326 0 0 1 17.386-9.15zm-97.917 152.731a168.345 168.345 0 0 0 6.323 45.823l-15.4 4.354a184.278 184.278 0 0 1 70.265-200.017l9.3 13.021a168.48 168.48 0 0 0 -70.488 136.819z"/></g></svg>