<svg height="512" viewBox="0 0 512 512" width="512" xmlns="http://www.w3.org/2000/svg"><g id="Filled_outline" data-name="Filled outline"><path d="m216 320h80v48h-80z" fill="#fdb683"/><path d="m224 168h64a48 48 0 0 1 48 48v56a80 80 0 0 1 -80 80 80 80 0 0 1 -80-80v-56a48 48 0 0 1 48-48z" fill="#fdc8a2"/><circle cx="216" cy="248" fill="#844e3a" r="16"/><circle cx="296" cy="248" fill="#844e3a" r="16"/><path d="m232 280h48a0 0 0 0 1 0 0v8a24 24 0 0 1 -24 24 24 24 0 0 1 -24-24v-8a0 0 0 0 1 0 0z" fill="#de5540"/><path d="m368 216v104a32 32 0 0 1 -32 32v-120h-7.5c-.28 0-.56 0-.83-.01a73.056 73.056 0 0 1 -71.67-63.99 73.037 73.037 0 0 1 -72 63.99c-.17.01-.33.01-.5.01h-7.5v120a31.991 31.991 0 0 1 -32-32v-104a111.983 111.983 0 0 1 104-111.71c2.64-.2 5.31-.29 8-.29s5.36.09 8 .29a111.977 111.977 0 0 1 104 111.71z" fill="#844e3a"/><path d="m184 64h144v65.996h-144z" fill="#395d7b"/><path d="m152 56 104-32 104 32-104 32z" fill="#426887"/><path d="m104.423 215.814-18.6-54.687a19.01 19.01 0 0 0 -23.22-12.157l-25.917 7.405a17.494 17.494 0 0 0 -12.686 16.825 17.506 17.506 0 0 0 .876 5.467l20.543 62.443 58.581-25.11z" fill="#fdc8a2"/><path d="m117.46 254.15-13.037-38.336-.423.186-58.581 25.106 15.201 46.204 19.38 64.69h72z" fill="#f1ddc1"/><path d="m2.745 149.255h128v32h-128z" fill="#f1ddc1" transform="matrix(.707 -.707 .707 .707 -97.304 95.598)"/><circle cx="112" cy="120" fill="#d3c1a9" r="16"/><path d="m85.761 161.282a13.914 13.914 0 0 0 -26.4 8.8l4.639 13.918a36.616 36.616 0 0 0 -10.211 32l42.211-24z" fill="#fdc8a2"/><path d="m394.207 254.15-34.54 97.85h72l19.38-64.69 15.205-46.219-58.982-25.352z" fill="#f1ddc1"/><path d="m474.978 156.375-25.917-7.405a19.008 19.008 0 0 0 -23.219 12.157l-6.175 16.206-5.715-5.037a12.32 12.32 0 0 0 -19.833 5.347 12.319 12.319 0 0 0 2.067 11.59l14.1 17.631-3.018 8.875 58.982 25.352 20.538-62.428a17.478 17.478 0 0 0 .877-5.467 17.494 17.494 0 0 0 -12.687-16.821z" fill="#fdc8a2"/><path d="m176 352h160v80h-160z" fill="#f1ddc1"/><path d="m487 309.67-17.98 67.76v.01l-5.38 20.25-20.05 75.52v.01l-3.92 14.78h-367.67l-3.59-13.51-20.33-76.62-5.37-20.24-18.04-67.96 35.95-22.36 56.84-33.16 34.54 97.85h40a78.478 78.478 0 0 0 56 32.18 78.254 78.254 0 0 0 16 0 78.478 78.478 0 0 0 56-32.18h39.67l34.54-97.85 56.84 33.16z" fill="#426887"/><path d="m288 296v-8a8 8 0 0 0 -8-8h-48a8 8 0 0 0 -8 8v8a32 32 0 0 0 64 0zm-48 0h32a16 16 0 0 1 -32 0zm-207.2-66.18c.159 0 .317-.013.476-.023l17.78 54.04-30.612 19.036a8 8 0 0 0 -3.508 8.846l6.384 24.054 15.465-4.105-4.866-18.334 79.217-47.4 30.539 86.517-30.011 127.549h-30.357l44.237-125.337-15.088-5.326-39.373 111.557-19.342-72.875.813.569 35.156-50.224-13.11-9.176-27.9 39.855-5.937-22.37-15.465 4.1 36.97 139.279a8 8 0 0 0 7.732 5.948h367.667a8 8 0 0 0 7.732-5.948l13.209-49.767-15.465-4.105-6.416 24.175-39.183-111.018-15.088 5.326 44.237 125.337h-30.357l-30.143-128.109 30.34-85.955 79.215 47.4-14.694 55.364-48.5-69.286-13.108 9.176 56 80 .4-.282-9.146 34.492 15.465 4.1 30.57-115.181a8 8 0 0 0 -3.507-8.846l-30.609-19.034 33.774-102.675a25.5 25.5 0 0 0 -17.212-32.487l-25.92-7.4a26.983 26.983 0 0 0 -32.94 17.131l-2.151 5.649a20.317 20.317 0 0 0 -26.223 30.17l11.363 14.207-14.624 43.008c0 .016-10.681 30.252-10.681 30.252v-65.694a119.251 119.251 0 0 0 -35.144-84.857c-1.568-1.569-3.193-3.1-4.856-4.584v-54.8l16-4.923v27.864l-7.589 22.768a8 8 0 0 0 7.584 10.532h16a8 8 0 0 0 7.589-10.53l-7.589-22.77v-38.7a8 8 0 0 0 -5.647-7.646l-104-32a8 8 0 0 0 -4.706 0l-41.811 12.864 4.706 15.293 39.458-12.141 76.8 23.63-76.8 23.63-76.8-23.63 25.322-7.792-4.702-15.292-50.173 15.438a8 8 0 0 0 0 15.292l26.353 8.108v54.8a119.3 119.3 0 0 0 -40 89.446v66.639l-39.054-113.652 31.87-31.869c.051-.05.1-.1.154-.147a24 24 0 1 0 -33.94-33.942c-.051.051-.1.1-.147.154l-39.543 39.543-20.845 5.951a25.444 25.444 0 0 0 -17.3 32.192l-12.672 12.674a8 8 0 0 0 0 11.314l22.62 22.62a7.974 7.974 0 0 0 5.657 2.343zm413.739 45.6-42.65-24.883 8.147-23.96 44.322 19zm-44.829-95.25a4.361 4.361 0 0 1 6.957-1.862l5.72 5.03a8 8 0 0 0 12.759-3.16s6.238-16.383 6.269-16.474a11 11 0 0 1 13.449-7.04l25.927 7.4a9.6 9.6 0 0 1 6.4 12.1l-17.814 54.155-44.177-18.936.662-1.947a8 8 0 0 0 -1.326-7.573l-14.1-17.634a4.363 4.363 0 0 1 -.726-4.06zm-217.71 91.83v-32a81.091 81.091 0 0 0 20.125-2.684 15.988 15.988 0 1 0 14.1-5.142 80.8 80.8 0 0 0 37.753-36.937 81.823 81.823 0 0 0 37.715 36.951 16.023 16.023 0 1 0 14.255 5.2 81.627 81.627 0 0 0 20.052 2.612v32a72 72 0 0 1 -144 0zm21.462 72h-21.462v-21.462a88.742 88.742 0 0 0 21.462 21.462zm122.156-130.036c.02.638.049 1.278.049 1.913v8.1a65.029 65.029 0 0 1 -63.667-56.543v-29.478c30.659 8.425 51.692 31.442 59.865 55.69-12.024-7.44-24.815-17.909-38.208-31.3l-11.314 11.314c18.703 18.7 36.593 32.221 53.275 40.304zm.382 108.574v21.462h-21.462a88.742 88.742 0 0 0 21.462-21.462zm-26.263 37.462a71.341 71.341 0 0 1 -91.474 0zm80.163 120h-21.9v-48h-16v48h-32v-48h-16v48h-32v-64h102.841zm-117.9-80v-7.77a86 86 0 0 0 59.957-32.23h29.707l9.412 40zm65.542-257.545a103.36 103.36 0 0 1 30.458 73.545v104a24.042 24.042 0 0 1 -16 22.629v-126.629a55.839 55.839 0 0 0 -1.133-11.217c-2.446-17.5-10.509-35.068-22.974-49.531a105 105 0 0 0 -22.01-19.252h24.57c2.461 2.045 4.839 4.206 7.089 6.455zm-137.542-65.778 61.647 18.969a8 8 0 0 0 4.706 0l61.647-18.969v43.323h-128zm-40 139.323a103.45 103.45 0 0 1 37.547-80h20.347a95.751 95.751 0 0 0 -35.487 45.143l14.945 5.714a79.259 79.259 0 0 1 50.676-47.821 76.4 76.4 0 0 1 7.972-2.021v11.594c-6.851 6.522-27.946 25.869-52.2 40.824l8.4 13.619a338.087 338.087 0 0 0 43.273-32.32 65.006 65.006 0 0 1 -63.473 53.257v-8.112a81.674 81.674 0 0 1 1.292-14.457l-15.746-2.84a97.679 97.679 0 0 0 -1.546 17.3v126.762a24.033 24.033 0 0 1 -16-22.642zm6.336 144h29.707a86 86 0 0 0 59.957 32.23v7.77h-99.076zm89.664 56v64h-32v-48h-16v48h-32v-48h-16v48h-21.9l15.058-64zm-148.368-189.425 8.149 23.96-42.652 24.882-9.82-29.846zm12.368-114.575a8 8 0 1 1 -8 8 8 8 0 0 1 8-8zm-21.662 18.355a24.019 24.019 0 0 0 4.691 6.615 24.019 24.019 0 0 0 6.615 4.691l-11.257 11.259a21.767 21.767 0 0 0 -10.715-7.966 22.282 22.282 0 0 0 -3.117-.815zm-20.681 59.3a8 8 0 0 0 1.932-8.187l-4.639-13.916a5.914 5.914 0 1 1 11.221-3.74l16.295 47.571-44.176 18.932-3.632-11.039 2.489-2.489 12.53-2.124a28.652 28.652 0 0 1 7.98-25.006zm-18.628-19.991a21.967 21.967 0 0 0 .742 2.948l3.18 9.537a44.647 44.647 0 0 0 -7.33 13.537l-14.821 14.82-11.306-11.306zm48.325 154.924-13.108-9.176 11.2-16 13.108 9.176zm53.621-216.308-55.734-88 13.517-8.56 55.734 88zm-70.632-14.623-48-48 11.314-11.314 48 48zm-56-56-16-16 11.314-11.314 16 16zm-5.905 51.687 40 26.666-8.876 13.313-40-26.667zm380.537-77.624 13.517 8.56-25.334 40-13.517-8.56zm4.692 105.926-11.334-11.292 71.733-72 11.334 11.292zm84.41-107.3 11.313 11.311-16 16-11.313-11.314zm1.2 79.012 8.909 13.29-47.733 32-8.91-13.29z"/></g></svg>