<?xml version="1.0" encoding="UTF-8"?>
<svg xmlns="http://www.w3.org/2000/svg" viewBox="0 0 512 512" width="512" height="512"><g id="Filled_outline" data-name="Filled outline"><path d="M488,168a56.011,56.011,0,0,0-36.193-52.384,48,48,0,0,0-72.513-58.089,56,56,0,0,0-102.588,0,48,48,0,0,0-72.513,58.089,56.006,56.006,0,0,0,0,104.768,48,48,0,0,0,72.513,58.089,56,56,0,0,0,102.588,0,48,48,0,0,0,72.513-58.089A56.011,56.011,0,0,0,488,168Z" style="fill:#ffb431"/><path d="M392,136a64,64,0,1,0-110.1,44.369A50.687,50.687,0,0,1,296,215.553V216h64v-.442a51.909,51.909,0,0,1,14.506-35.611A63.735,63.735,0,0,0,392,136Z" style="fill:#f1ddc1"/><path d="M296,216h64a0,0,0,0,1,0,0v16a16,16,0,0,1-16,16H312a16,16,0,0,1-16-16V216A0,0,0,0,1,296,216Z" style="fill:#844e3a"/><path d="M24,312a32,32,0,0,0,32,32H216a32,32,0,0,0,32-32V208A112,112,0,0,0,136,96h0A112,112,0,0,0,24,208Z" style="fill:#784533"/><path d="M248,416.79V496H24V416.79A49.751,49.751,0,0,1,64,368l33.57-6.71a8,8,0,0,0,6.43-7.85V312h64v41.44a8,8,0,0,0,6.43,7.85L208,368A49.752,49.752,0,0,1,248,416.79Z" style="fill:#fdc8a2"/><path d="M168,312v41.33a80.1,80.1,0,0,1-64,0V312Z" style="fill:#fdbf92"/><path d="M104,160h64a48,48,0,0,1,48,48v56a80,80,0,0,1-80,80h0a80,80,0,0,1-80-80V208a48,48,0,0,1,48-48Z" style="fill:#fdc8a2"/><circle cx="96" cy="248" r="16" style="fill:#844e3a"/><circle cx="176" cy="248" r="16" style="fill:#844e3a"/><path d="M248,208V312a32,32,0,0,1-32,32V224h-7.5c-.28,0-.56,0-.83-.01A73.056,73.056,0,0,1,136,160a73.037,73.037,0,0,1-72,63.99c-.17.01-.33.01-.5.01H56V344a31.991,31.991,0,0,1-32-32V208A111.983,111.983,0,0,1,128,96.29c2.64-.2,5.31-.29,8-.29s5.36.09,8,.29A111.977,111.977,0,0,1,248,208Z" style="fill:#844e3a"/><path d="M208,368h0l-17.373,17.373A77.254,77.254,0,0,1,136,408h0a77.254,77.254,0,0,1-54.627-22.627L64,368h0a49.759,49.759,0,0,0-40,48.792V496H248V416.792A49.759,49.759,0,0,0,208,368Z" style="fill:#de5540"/><path d="M496,168a64.386,64.386,0,0,1-34.15,56.6A56.032,56.032,0,0,1,382.342,289.8a63.992,63.992,0,0,1-112.958-8.114l14.652-6.428a47.994,47.994,0,0,0,87.928,0,8,8,0,0,1,12.117-3.193A39.641,39.641,0,0,0,408,280a40.006,40.006,0,0,0,36.508-56.353,8,8,0,0,1,4.472-10.75,48,48,0,0,0,0-89.794,8,8,0,0,1-4.472-10.75,40,40,0,0,0-60.427-48.416,8,8,0,0,1-12.117-3.193,47.994,47.994,0,0,0-87.928,0,8,8,0,0,1-12.117,3.193A40.013,40.013,0,0,0,209.1,86.654l-15.561-3.722A56.052,56.052,0,0,1,273.658,46.2a63.989,63.989,0,0,1,108.684,0A56.027,56.027,0,0,1,461.85,111.4,64.386,64.386,0,0,1,496,168ZM280.659,106.224a55.765,55.765,0,0,0,7,68.595A58.209,58.209,0,0,1,303.525,208H304V169.889l-7.155-14.311A8,8,0,0,1,304,144h48a8,8,0,0,1,7.155,11.578L352,169.889V208h.5a60.287,60.287,0,0,1,16.2-33.551,55.94,55.94,0,0,0-80.07-78.126l-11.27-11.357A71.942,71.942,0,0,1,380.317,185.445,43.837,43.837,0,0,0,368,215.558V232a24.028,24.028,0,0,1-24,24H312a24.028,24.028,0,0,1-24-24V215.553a42.468,42.468,0,0,0-11.865-29.634,71.764,71.764,0,0,1-8.987-88.265ZM316.944,160l2.211,4.422A7.994,7.994,0,0,1,320,168v40h16V168a7.994,7.994,0,0,1,.845-3.578L339.056,160ZM304,232a8.009,8.009,0,0,0,8,8h32a8.009,8.009,0,0,0,8-8v-8H304Zm24-120a23.764,23.764,0,0,1,9.292,1.872l6.222-14.741A39.759,39.759,0,0,0,327.943,96l-.541,0c-.875.013-1.76.056-2.63.126l1.3,15.948c.515-.043,1.04-.068,1.5-.075Zm-10.369,2.416-7.053-14.362a40.5,40.5,0,0,0-22.568,35.039l16,.349A24.35,24.35,0,0,1,317.631,114.416ZM464,160H448v16h16Zm-32,0H408v16h24ZM336,288V272H320v16ZM394.343,90.343l11.314,11.314,16-16L410.343,74.343Zm35.314,168-11-11-11.314,11.314,11,11Zm-51.314-28.686,18.5,18.5,11.314-11.314-18.5-18.5Zm-144-144,16,16,11.314-11.314-16-16ZM256,496V416.79a58.078,58.078,0,0,0-.887-10.112l-15.755,2.792a42.06,42.06,0,0,1,.642,7.32V496ZM112,248a16,16,0,1,0-16,16A16.019,16.019,0,0,0,112,248Zm64,16a16,16,0,1,0-16-16A16.019,16.019,0,0,0,176,264Zm-8.509,10.808-14.982-5.616C150.086,275.657,143.452,280,136,280s-14.086-4.343-16.509-10.808l-14.982,5.616C109.26,287.483,121.915,296,136,296S162.74,287.483,167.491,274.808ZM32,496H16V416.79a57.751,57.751,0,0,1,46.435-56.636L96,353.445V352H56a40.045,40.045,0,0,1-40-40V208a120.045,120.045,0,0,1,41.05-90.374l10.532,12.046A104.041,104.041,0,0,0,32,208V312a24.041,24.041,0,0,0,16,22.629V207.877a97.67,97.67,0,0,1,1.546-17.3l15.746,2.84A81.674,81.674,0,0,0,64,207.877v8.111a65.163,65.163,0,0,0,63.475-53.258A338.251,338.251,0,0,1,84.2,195.052l-8.4-13.619c24.253-14.955,45.348-34.3,52.2-40.824V129.015a76.4,76.4,0,0,0-7.972,2.021,79.259,79.259,0,0,0-50.676,47.821l-14.945-5.714a95.165,95.165,0,0,1,60.877-57.388A90.486,90.486,0,0,1,128,112.762v-8.455a103.314,103.314,0,0,0-50.142,17.45L68.9,108.5A120.016,120.016,0,0,1,256,208V312a40.045,40.045,0,0,1-40,40H176v1.44l33.568,6.715a57.49,57.49,0,0,1,40.023,30.183l-14.22,7.333a41.541,41.541,0,0,0-24.924-20.805l-14.163,14.163a85.253,85.253,0,0,1-120.568,0L61.552,376.865A41.731,41.731,0,0,0,32,416.79ZM208,314.538A88.742,88.742,0,0,1,186.538,336H208ZM144,113.472a105.628,105.628,0,0,1,55.893,33.78c15.108,17.531,23.774,39.627,23.774,60.625L224,334.629A24.042,24.042,0,0,0,240,312V208a104.139,104.139,0,0,0-96-103.695Zm0,45.953a65.155,65.155,0,0,0,63.667,56.556s-.029-9.379-.049-10.017c-16.682-8.083-34.572-21.6-53.275-40.307l11.314-11.314c13.393,13.394,26.184,23.863,38.208,31.3-8.173-24.248-29.206-47.265-59.865-55.69ZM85.462,336A88.742,88.742,0,0,1,64,314.538V336ZM136,336a72.081,72.081,0,0,0,72-72V232a81.24,81.24,0,0,1-72-44.814A81.24,81.24,0,0,1,64,232v32A72.081,72.081,0,0,0,136,336ZM80.228,372.915l6.8,6.8a69.257,69.257,0,0,0,97.942,0l6.8-6.8-18.91-3.78A16.051,16.051,0,0,1,160,353.44v-4.767a88.228,88.228,0,0,1-48,0v4.767a16.05,16.05,0,0,1-12.857,15.694ZM64,496H80V424H64Zm128,0h16V424H192Zm-85.623-68.8-4.754,15.278a115.2,115.2,0,0,0,68.754,0L165.623,427.2A99.286,99.286,0,0,1,106.377,427.2Z"/></g></svg>
