<?xml version="1.0" encoding="UTF-8"?>
<svg xmlns="http://www.w3.org/2000/svg" viewBox="0 0 512 512" width="512" height="512"><g id="Filled_outline" data-name="Filled outline"><path d="M368,200A112,112,0,0,0,254.384,88.011C193.83,88.865,144.525,138.457,144,199.016a111.494,111.494,0,0,0,22.039,67.708C182.6,289.011,192,315.8,192,343.567V344H320v-.438a126.208,126.208,0,0,1,25.411-76.11A111.48,111.48,0,0,0,368,200Z" style="fill:#ffb431"/><path d="M192,344H320a0,0,0,0,1,0,0v48a16,16,0,0,1-16,16H208a16,16,0,0,1-16-16V344A0,0,0,0,1,192,344Z" style="fill:#426887"/><path d="M248,448h16v48H248ZM264,16H248V56h16ZM32,264V248H16v16Zm16,0h80V248H48ZM37.657,26.343l-16-16L10.343,21.657l16,16Zm.353,22.98L124.483,135.8,135.8,124.483,49.323,38.01Zm.147,435.834L26.843,473.843l-16.5,16.5,11.314,11.314Zm127.5-127.5-11.314-11.314L38.177,462.51,49.49,473.823ZM12.422,143.155l96.83,48.42,7.156-14.31-96.83-48.42Zm151.156,168-7.156-14.31-144,72,7.156,14.31ZM179.245,427.4l-14.31-7.155-36.09,72.18,14.31,7.156Zm-50.4-407.819,34.23,68.46,14.31-7.156-34.23-68.46ZM480,248v16h16V248Zm-96,0v16h80V248ZM474.343,26.343l11.314,11.314,16-16L490.343,10.343Zm-98.14,98.14L387.517,135.8,473.99,49.323,462.677,38.01Zm97.64,360.674,16.5,16.5,11.314-11.314-16.5-16.5Zm-.02-22.647L357.657,346.343l-11.314,11.314L462.51,473.823Zm18.6-333.665-96.83,48.42,7.156,14.31,96.83-48.42Zm7.156,240-144-72-7.156,14.31,144,72ZM383.155,492.422l-36.09-72.18-14.31,7.155,36.09,72.181Zm0-472.844-14.31-7.156-34.23,68.46,14.31,7.156ZM184.4,124.765A103.929,103.929,0,0,1,339.029,262.629a133.436,133.436,0,0,0-11.655,18.377l14.167,7.435a117.29,117.29,0,0,1,10.253-16.166A119.917,119.917,0,0,0,173.361,113.18ZM256,432a33.665,33.665,0,0,1-28.765-16H208a24.027,24.027,0,0,1-24-24V343.567c0-25.688-8.43-50.61-24.378-72.071a119.7,119.7,0,0,1,2.891-146.522l12.465,10.032a103.7,103.7,0,0,0-2.514,126.947c16.451,22.137,25.819,47.594,27.322,74.047H224V258.422l-14.656-21.984A8,8,0,0,1,216,224h80a8,8,0,0,1,6.656,12.438L288,258.422V336h24.209a134.228,134.228,0,0,1,8.511-40.195l14.964,5.665A118.445,118.445,0,0,0,328,343.562V392a24.027,24.027,0,0,1-24,24H284.766A33.667,33.667,0,0,1,256,432ZM230.948,240l7.708,11.562A7.993,7.993,0,0,1,240,256v80h32V256a7.993,7.993,0,0,1,1.344-4.438L281.052,240ZM304,400a8.009,8.009,0,0,0,8-8v-8H216V368h96V352H200v40a8.009,8.009,0,0,0,8,8ZM227.325,134.038a71.15,71.15,0,0,1,14.293-4.576l-3.236-15.669a87.083,87.083,0,0,0-17.515,5.606Zm-11.676,6.5-9.039-13.2a87.9,87.9,0,0,0-36.683,91.09l15.65-3.327a71.9,71.9,0,0,1,30.072-74.561Z"/></g></svg>
