<svg height="512" viewBox="0 0 512 512" width="512" xmlns="http://www.w3.org/2000/svg"><g id="Filled_outline" data-name="Filled outline"><rect fill="#f99e0c" height="320" rx="104" width="208" x="56" y="24"/><path d="m352 496h-72l-32-72v72h-216v-128a48 48 0 0 1 48-48h36a12 12 0 0 0 12-12v-68h64v68a12 12 0 0 0 12 12h50.38a48.008 48.008 0 0 1 45.11 31.6z" fill="#fdc8a2"/><path d="m192 240v47.97c-.56.3-1.12.59-1.69.87a67.693 67.693 0 0 1 -60.62 0c-.57-.28-1.13-.57-1.69-.87v-47.97z" fill="#fdbf92"/><path d="m280 496-32-72v72h-216v-128a48 48 0 0 1 48-48h16l64 112 64-112h30.379a48 48 0 0 1 45.111 31.6l52.51 144.4z" fill="#f1ddc1"/><path d="m352 496-52.51-144.4a48 48 0 0 0 -45.111-31.6h-46.379l-24 160v16h64v-18.184a54.618 54.618 0 0 0 8-28.443v-.833a54.526 54.526 0 0 0 -.565-7.811l24.565 55.271z" fill="#426887"/><path d="m112 320h-32a48 48 0 0 0 -48 48v128h104v-16z" fill="#426887"/><path d="m112 320h-16l-24 32 24 24-24 8 64 96z" fill="#65849e"/><path d="m208 320h16l24 32-24 24 24 8-64 96z" fill="#65849e"/><path d="m190.311 272.845a67.785 67.785 0 0 1 -30.311 7.155 67.785 67.785 0 0 1 -30.311-7.155 89.889 89.889 0 0 1 -49.689-80.399v-56.446a80 80 0 0 1 80-80 80 80 0 0 1 80 80v56.446a89.889 89.889 0 0 1 -49.689 80.399z" fill="#fdc8a2"/><path d="m264 144h8a0 0 0 0 1 0 0v48a0 0 0 0 1 0 0h-8a24 24 0 0 1 -24-24 24 24 0 0 1 24-24z" fill="#fdbf92" transform="matrix(-1 0 0 -1 512 336)"/><path d="m264 128v16h-24l-40-72-7.03 11.05a235.955 235.955 0 0 1 -136.97 100.95v-56a104.063 104.063 0 0 1 134.92-99.32c.01-.01.01 0 .01 0a102.976 102.976 0 0 1 17.07 7.04 104.092 104.092 0 0 1 56 92.28z" fill="#ffb431"/><path d="m378.91 440-2.91-32h-48v88h56z" fill="#517694"/><path d="m378.91 440h-50.91v-32h48z" fill="#f1ddc1"/><path d="m376 408h-48v-40h96a33.3 33.3 0 0 1 -22.768 31.589z" fill="#fdc8a2"/><path d="m440 272h-144a22.627 22.627 0 0 0 0-32h144a16 16 0 0 1 16 16 16 16 0 0 1 -16 16z" fill="#ffb431"/><path d="m336 208h144a22.627 22.627 0 0 0 0 32h-144a16 16 0 0 1 -16-16 16 16 0 0 1 16-16z" fill="#844e3a"/><path d="m408 208h72a22.627 22.627 0 0 0 0 32h-72a16 16 0 0 1 -16-16 16 16 0 0 1 16-16z" fill="#f1ddc1"/><path d="m312 176h144a22.627 22.627 0 0 0 0 32h-144a16 16 0 0 1 -16-16 16 16 0 0 1 16-16z" fill="#de5540"/><path d="m312 176h144a22.627 22.627 0 0 0 0 32h-144a16 16 0 0 1 -16-16 16 16 0 0 1 16-16z" fill="#de5540"/><path d="m384 176h72a22.627 22.627 0 0 0 0 32h-72a16 16 0 0 1 -16-16 16 16 0 0 1 16-16z" fill="#f1ddc1"/><path d="m464 344a24 24 0 0 1 -24 24h-160a33.813 33.813 0 0 0 8.99-16 34.159 34.159 0 0 0 0-16 33.813 33.813 0 0 0 -8.99-16h160a24.006 24.006 0 0 1 24 24z" fill="#de5540"/><path d="m288.99 336a33.813 33.813 0 0 0 -8.99-16h80a24 24 0 0 1 0 48h-80a33.813 33.813 0 0 0 8.99-16 34.159 34.159 0 0 0 0-16z" fill="#f1ddc1"/><path d="m471.01 304a33.813 33.813 0 0 0 8.99 16h-160a24 24 0 0 1 0-48h160a33.813 33.813 0 0 0 -8.99 16 34.159 34.159 0 0 0 0 16z" fill="#426887"/><path d="m471.01 304a33.813 33.813 0 0 0 8.99 16h-80a24 24 0 0 1 0-48h80a33.813 33.813 0 0 0 -8.99 16 34.159 34.159 0 0 0 0 16z" fill="#f1ddc1"/><path d="m368 272h-72a22.627 22.627 0 0 0 0-32h72a16 16 0 0 1 16 16 16 16 0 0 1 -16 16z" fill="#f1ddc1"/><path d="m27.188 349.334 15.086 5.332a39.935 39.935 0 0 0 -2.274 13.334v128h-16v-128a55.9 55.9 0 0 1 3.188-18.666zm47.27-37.034a111.155 111.155 0 0 1 -26.458-72.3v-112a112.106 112.106 0 0 1 26.135-71.917l12.265 10.279a96.086 96.086 0 0 0 -22.4 61.638v45.273c4.432-1.431 8.8-2.992 13.076-4.67.074-.029.15-.057.225-.084a226.531 226.531 0 0 0 108.92-89.765l5.779-9.084v-24.956c-16.707 2.219-58.636 11.077-87.907 45.471l-12.186-10.37c24.468-28.749 55.974-41.56 78.435-47.262a97.727 97.727 0 0 0 -10.342-.553 95.651 95.651 0 0 0 -65.567 25.877l-10.933-11.685a112 112 0 0 1 188.5 81.808v18.868a31.91 31.91 0 0 1 0 42.264v50.868a111.653 111.653 0 0 1 -26.222 72.011c10.1.008 10.378.017 10.491.021l-.412 15.994c-.6-.007-7.659-.014-15.852-.019l14.395 19.193a8 8 0 0 1 -.743 10.457l-14.847 14.843 11.72 3.907a8 8 0 0 1 4.126 12.027l-62.656 93.988v13.578h-16l.006-16c0-.393 12.05-80.968 12.05-80.968l-21.111 36.938a8 8 0 0 1 -13.89 0l-21.111-36.937 12.056 80.967v16h-16v-13.578l-62.656-93.984a8 8 0 0 1 4.126-12.027l11.72-3.911-14.847-14.843a8 8 0 0 1 -.743-10.457l14.4-19.2a39.958 39.958 0 0 0 -33.338 17.887l-13.324-8.859a55.9 55.9 0 0 1 41.12-24.728zm48.313 133.434-17.66-117.734h-5.111l-17.437 23.25 19.094 19.093a8 8 0 0 1 -3.127 13.246l-14.063 4.688zm71.843-90.42 4.2-28.018a20.018 20.018 0 0 1 -14.814-19.296v-23.914a75.686 75.686 0 0 1 -41.406 1.891q-3.346-.8-6.594-1.884v23.907a20.018 20.018 0 0 1 -14.817 19.3l4.2 28.017 34.617 60.56zm23.729 15.03 19.094-19.093-17.437-23.251h-5.11l-17.661 117.733 38.3-57.456-14.063-4.688a8 8 0 0 1 -3.127-13.246zm37.657-171.357a31.94 31.94 0 0 1 -8 1.013h-.293a97.183 97.183 0 0 1 -47.707 76.67v31.33a4 4 0 0 0 4 4h19.491a95.753 95.753 0 0 0 32.509-72zm-8-46.987v32a16 16 0 0 0 0-32zm-40-82.073 36.707 66.073h3.293a31.94 31.94 0 0 1 8 1.013v-9.013a95.368 95.368 0 0 0 -28.117-67.883 96.52 96.52 0 0 0 -19.883-15.296zm-120 122.523a81.9 81.9 0 0 0 45.267 73.234 61.4 61.4 0 0 0 26.733 6.316 60.012 60.012 0 0 0 26.729-6.314 81.426 81.426 0 0 0 45.271-73.236v-46.377l-32.466-58.438a242.618 242.618 0 0 1 -69.5 71.249 13.982 13.982 0 1 1 -24.087 14.2q-8.763 4.516-17.947 8.357zm4.117 115.433c1.421 1.421 2.91 2.785 4.422 4.117h19.461a4 4 0 0 0 4-4v-31.338a97.906 97.906 0 0 1 -48-84.212v-4.986c-2.649.894-5.314 1.755-8 2.561v49.975a95.368 95.368 0 0 0 28.117 67.883zm-12.286 114.792-13.312-8.875a62.426 62.426 0 0 0 -10.519 34.74v.833a62.164 62.164 0 0 0 16 41.813v4.814h16v-8a8 8 0 0 0 -2.344-5.657 46.321 46.321 0 0 1 -13.656-32.97v-.833a46.484 46.484 0 0 1 7.831-25.865zm154.513 59.668a8 8 0 0 0 -2.344 5.657v8h16v-4.814a62.216 62.216 0 0 0 12.153-20.144l11.514 24.958h17.333l-25.822-57.549a62.419 62.419 0 0 0 -9.7-24.651l-13.312 8.875a46.484 46.484 0 0 1 7.834 25.865v.833a46.321 46.321 0 0 1 -13.656 32.97zm-32.344-302.343a14 14 0 1 0 -14-14 14.015 14.015 0 0 0 14 14zm-14.422 43.155-7.156-14.31a68.118 68.118 0 0 1 -30.311 7.155h-6.111v16h6.111a84.209 84.209 0 0 0 37.467-8.845zm-7.97-147.233-7.216-14.279c-57.009 28.815-89.234 67.646-90.579 69.284l12.369 10.151c.309-.378 31.585-37.941 85.426-65.156zm100.392 236.078h12.305a31.906 31.906 0 0 1 .419-32.713 7.985 7.985 0 0 1 -2.38-12.944 14.628 14.628 0 0 0 0-20.686 8 8 0 0 1 5.656-13.657h17.376a23.944 23.944 0 0 1 0-16h-1.376a24 24 0 0 1 0-48h24v16h-24a8 8 0 0 0 0 16h130.422a31 31 0 0 1 0-16h-90.422v-16h104a8 8 0 0 1 5.656 13.657 14.624 14.624 0 0 0 -1.9 18.343h20.244a8 8 0 0 1 5.656 13.657 14.628 14.628 0 0 0 0 20.686 8 8 0 0 1 -5.656 13.657h-17.376a23.944 23.944 0 0 1 0 16h17.376a8 8 0 0 1 5.657 13.657 25.969 25.969 0 0 0 0 36.686 8 8 0 0 1 -5.657 13.657h-12.3a31.974 31.974 0 0 1 3.382 23.651l-15.537-3.817a16.022 16.022 0 0 0 -15.545-19.834h-145.206a42.247 42.247 0 0 1 0 32h145.206a15.972 15.972 0 0 0 10.642-4.052l10.646 11.944a31.952 31.952 0 0 1 -21.288 8.108h-8.779a41.241 41.241 0 0 1 -27.46 31.179l-19.22 6.407 7.426 82.414h-15.934l-4.433-48h-35.6v48h-16v-64.58l-20.153-55.42h-19.847a8 8 0 0 1 -5.657-13.657 25.969 25.969 0 0 0 0-36.686 8 8 0 0 1 5.657-13.657zm56 88h38.7l24-8a25.26 25.26 0 0 0 16.007-16h-78.707zm0 32h34.149l-1.455-16h-32.694zm-19.128-56 3.128 8.6v-8.6zm11.128-152a8.009 8.009 0 0 0 8 8h130.422a31 31 0 0 1 0-16h-130.422a8.009 8.009 0 0 0 -8 8zm-17.372 32a30.769 30.769 0 0 1 -1.05 8h130.422a8 8 0 0 0 0-16h-130.422a30.769 30.769 0 0 1 1.05 8zm-6.628 40a16.019 16.019 0 0 0 16 16h145.206a42.247 42.247 0 0 1 0-32h-145.206a16.019 16.019 0 0 0 -16 16z"/></g></svg>