<svg height="512" viewBox="0 0 512 512" width="512" xmlns="http://www.w3.org/2000/svg"><g id="Filled_outline" data-name="Filled outline"><rect fill="#593528" height="432" rx="16" width="464" x="24" y="24"/><g fill="#844e3a"><path d="m272 224h400a16 16 0 0 1 16 16v16a0 0 0 0 1 0 0h-432a0 0 0 0 1 0 0v-16a16 16 0 0 1 16-16z" transform="matrix(0 1 -1 0 712 -232)"/><path d="m-176 224h432a0 0 0 0 1 0 0v16a16 16 0 0 1 -16 16h-400a16 16 0 0 1 -16-16v-16a0 0 0 0 1 0 0z" transform="matrix(0 1 -1 0 280 200)"/><path d="m56 424h400v32h-400z"/><path d="m40 24h432a16 16 0 0 1 16 16v16a0 0 0 0 1 0 0h-464a0 0 0 0 1 0 0v-16a16 16 0 0 1 16-16z"/></g><path d="m24 56h32v16h-32z" fill="#784533"/><path d="m456 56h32v16h-32z" fill="#784533"/><g fill="#513024"><path d="m56 56h400v32h-400z"/><path d="m56 184h400v32h-400z"/><path d="m56 312h400v32h-400z"/></g><path d="m56 280h400v32h-400z" fill="#7d4a38"/><path d="m56 152h400v32h-400z" fill="#7d4a38"/><path d="m88 88h32v64h-32z" fill="#348ed8"/><path d="m184 104h32v48h-32z" fill="#348ed8"/><path d="m248 104h32v48h-32z" fill="#348ed8"/><path d="m280 104h32v48h-32z" fill="#426887"/><path d="m56 88h32v64h-32z" fill="#ffb431"/><path d="m120 104h32v48h-32z" fill="#de5540"/><path d="m216 88h32v64h-32z" fill="#de5540"/><path d="m312 88h32v64h-32z" fill="#de5540"/><path d="m366.048 88-22.048 10.143 25.952 53.857 22.048-10.143z" fill="#426887"/><path d="m56 216h32v64h-32z" fill="#348ed8"/><path d="m88 216h32v64h-32z" fill="#ffb431"/><path d="m120 232h32v48h-32z" fill="#426887"/><path d="m152 216h32v64h-32z" fill="#348ed8"/><path d="m184 232h32v48h-32z" fill="#de5540"/><path d="m216 232h32v48h-32z" fill="#348ed8"/><path d="m56 344h32v80h-32z" fill="#426887"/><path d="m88 344h32v80h-32z" fill="#de5540"/><path d="m184 360h32v64h-32z" fill="#de5540"/><path d="m216 344h32v80h-32z" fill="#348ed8"/><path d="m248 344h32v80h-32z" fill="#ffb431"/><path d="m309.398 336-29.398 13.946 34.602 74.054 29.398-13.946z" fill="#de5540"/><path d="m149.398 336-29.398 13.946 34.602 74.054 29.398-13.946z" fill="#426887"/><path d="m424 248h-40a16 16 0 0 1 -16-16v-16h-16l12.353-37.06a16 16 0 0 1 15.179-10.94h28.468a16 16 0 0 1 16 16z" fill="#fdc8a2"/><path d="m424 200-24-16h-32a16 16 0 0 1 -16-16 16 16 0 0 1 16-16h32a24 24 0 0 1 24 24z" fill="#426887"/><path d="m360 344v112h32 32v-112z" fill="#426887"/><path d="m355.314 488h36.686v-32h-32l-12.686 12.686a11.314 11.314 0 0 0 -3.314 8 11.313 11.313 0 0 0 11.314 11.314z" fill="#593528"/><path d="m387.314 488h36.686v-32h-32l-12.686 12.686a11.314 11.314 0 0 0 -3.314 8 11.313 11.313 0 0 0 11.314 11.314z" fill="#6a3f2e"/><path d="m424 248h-64a30.739 30.739 0 0 0 -29.821 23.283l-2.179 8.717-8-32h-32l10.85 48.826a29.6 29.6 0 0 0 28.889 23.174 29.594 29.594 0 0 0 29.019-23.79l3.242-16.21v64h64v16h32v-81.261a30.739 30.739 0 0 0 -30.739-30.739z" fill="#d6513c"/><path d="m216 152h64a8 8 0 0 1 8 8v80a8 8 0 0 1 -8 8h-64a0 0 0 0 1 0 0v-96a0 0 0 0 1 0 0z" fill="#ffb431"/><path d="m320 248-5.772-34.63a16 16 0 0 0 -15.782-13.37h-26.446v32h12l4 16z" fill="#fdc8a2"/><path d="m424 360h32a0 0 0 0 1 0 0v32a0 0 0 0 1 0 0h-16a16 16 0 0 1 -16-16v-16a0 0 0 0 1 0 0z" fill="#fdc8a2"/><path d="m424 248a32 32 0 0 1 32 32v80a0 0 0 0 1 0 0h-32a0 0 0 0 1 0 0v-112a0 0 0 0 1 0 0z" fill="#de5540"/><path d="m480 368h16v88a8 8 0 0 1 -8 8h-40v-40h16v24h16zm-144-192h-24v16h24zm160-152v328h-16v-288h-16v168h-16v-168h-384v16h56a8 8 0 0 1 8 8v8h24a8 8 0 0 1 8 8v40h16v-40a8 8 0 0 1 8-8h24v-8a8 8 0 0 1 8-8h32a8 8 0 0 1 8 8v8h48v-8a8 8 0 0 1 8-8h32a8 8 0 0 1 7.687 5.8l11.013-5.068a8 8 0 0 1 10.551 3.8l17.952 37.255-14.414 6.946-14.537-30.181-7.51 3.455 12.465 25.868-14.414 6.945-.793-1.646v2.826h-16v-40h-16v48h-16v-32h-16v16h-16v-16h-16v16h-16v-32h-16v32h-16v-16h-16v48h-128v16h128v16h-128v16h56a8 8 0 0 1 8 8v8h16v-8a8 8 0 0 1 8-8h32a8 8 0 0 1 8 8v56h80v16h-208v16h216v16h-216v16h56a7.973 7.973 0 0 1 5.7 2.388l20.271-9.616a8 8 0 0 1 10.677 3.841l19.352 41.421v-14.034a8 8 0 0 1 8-8h24v-8a8 8 0 0 1 8-8h64a7.973 7.973 0 0 1 5.7 2.388l20.271-9.616a8 8 0 0 1 10.677 3.841l26.6 56.933-14.5 6.773-23.2-49.642-14.942 7.088 29.094 62.235h16.3v16h-272v16h264v16h-304a8 8 0 0 1 -8-8v-352h16v344h16v-384h-16v24h-16v-64a8 8 0 0 1 8-8h464a8 8 0 0 1 8 8zm-208 392h14.034l-14.034-30.034zm-32 0h16v-64h-16zm-32 0h16v-64h-16zm-32 0h16v-48h-16zm-61.386-62.235 27.83 59.558 14.942-7.088-27.83-59.558zm-2.614 62.235h14.034l-14.034-30.034zm-32 0h16v-64h-16zm64-144h16v-48h-16zm-32 0h16v-32h-16zm-32 0h16v-48h-16zm32-128h16v-32h-16zm-32 0h16v-48h-16zm-32 208v64h16v-64zm0-128v48h16v-48zm0-128v48h16v-48zm416-64h-448v16h448zm-128 312v-24.915a37.554 37.554 0 0 1 -60.959-20.523l-9.478-42.648c-.517.051-1.037.086-1.563.086h-64a8 8 0 0 1 -8-8v-96a8 8 0 0 1 8-8h64a16.019 16.019 0 0 1 16 16v32h2.446a23.923 23.923 0 0 1 23.673 20.054l5.721 34.325 2.006 8.019a38.68 38.68 0 0 1 30.154-14.398h1.376a23.889 23.889 0 0 1 -1.376-8v-8h-8a8 8 0 0 1 -7.589-10.53l8.85-26.549a23.987 23.987 0 0 1 14.739-42.921h32a32.036 32.036 0 0 1 32 32v64.6a38.793 38.793 0 0 1 32 38.14v113.26a8 8 0 0 1 -8 8h-16a23.885 23.885 0 0 1 -8-1.376v89.376a8 8 0 0 1 -8 8h-68.69a19.335 19.335 0 0 1 -19.31-19.31 19.452 19.452 0 0 1 5.651-13.656l10.349-10.347zm64 120h-20.687l-10.342 10.343a3.314 3.314 0 0 0 2.342 5.657h28.687zm0-112h-48v96h16v-80h16v80h16zm32 16h-16v8a8.009 8.009 0 0 0 8 8h8zm-80-192h32a8 8 0 0 1 4.438 1.344l11.562 7.708v-9.052a16.019 16.019 0 0 0 -16-16h-32a8 8 0 0 0 0 16zm8 40v16a8.009 8.009 0 0 0 8 8h32v-35.719l-16-10.666v14.385h-16v-16h-15.565l-5.335 16h4.9a8 8 0 0 1 8 8zm-96-24v-32h-56v80h48a8 8 0 0 1 -8-8v-32a8 8 0 0 1 8-8zm14.245 48h16.312l-4.22-25.315a7.976 7.976 0 0 0 -7.891-6.685h-18.446v16h4a8 8 0 0 1 7.761 6.059zm57.91 38.431a8 8 0 0 1 15.845 1.569v56h48v-64h16v80h16v-73.261a22.764 22.764 0 0 0 -22.738-22.739h-65.262a22.709 22.709 0 0 0 -22.061 17.224l-2.177 8.716a8 8 0 0 1 -15.523 0l-6.485-25.94h-15.781l8.687 39.091a21.593 21.593 0 0 0 42.253-.449zm-.155 198.259a3.336 3.336 0 0 0 3.31 3.31h13a19.354 19.354 0 0 1 -.305-3.313 19.159 19.159 0 0 1 4.772-12.687h-9.464l-10.346 10.347a3.335 3.335 0 0 0 -.967 2.343z"/></g></svg>