<?xml version="1.0" encoding="UTF-8"?>
<svg xmlns="http://www.w3.org/2000/svg" viewBox="0 0 512 512" width="512" height="512"><g id="Filled_outline" data-name="Filled outline"><rect x="24" y="24" width="464" height="432" rx="12.129" ry="12.129" style="fill:#426887"/><path d="M440,208H392a16,16,0,0,1-16-16V176l-16-8,16-16v-8a16,16,0,0,1,16-16h32a16,16,0,0,1,16,16Z" style="fill:#fdc8a2"/><path d="M440,160l-10.687-7.125A29.9,29.9,0,0,1,416,128h0a75.779,75.779,0,0,1-33.889,8H368a32,32,0,0,1,32-32h8a32,32,0,0,1,32,32Z" style="fill:#844e3a"/><polygon points="376 320 376 456 416 456 456 456 456 320 376 320" style="fill:#844e3a"/><path d="M362.422,488H416V456H376l-19.359,12.906A10.423,10.423,0,0,0,352,477.578h0A10.422,10.422,0,0,0,362.422,488Z" style="fill:#593528"/><path d="M402.422,488H456V456H416l-19.359,12.906A10.423,10.423,0,0,0,392,477.578h0A10.422,10.422,0,0,0,402.422,488Z" style="fill:#6a3f2e"/><path d="M456,208H376a30.739,30.739,0,0,0-29.821,23.283L344,240l-8-32H304l10.85,48.826A29.6,29.6,0,0,0,343.739,280h0a29.594,29.594,0,0,0,29.019-23.79L376,240v80h80v16h32V238.739A30.739,30.739,0,0,0,457.261,208Z" style="fill:#d6513c"/><path d="M488,336H456V208h0a32,32,0,0,1,32,32Z" style="fill:#de5540"/><path d="M336,208l-5.772-34.63A16,16,0,0,0,314.446,160H288v32h12l4,16Z" style="fill:#fdc8a2"/><path d="M456,336h32a0,0,0,0,1,0,0v32a0,0,0,0,1,0,0H472a16,16,0,0,1-16-16V336A0,0,0,0,1,456,336Z" style="fill:#fdc8a2"/><path d="M488,16H24a8,8,0,0,0-8,8V456a8,8,0,0,0,8,8H336V448H264V248h24V232H264V32H368V88h16V32h96V192h16V24A8,8,0,0,0,488,16ZM128,448H32V248h96Zm0-216H32V32h96ZM248,448H144V248H248Zm0-216H144V32H248ZM48,160a16,16,0,1,1,24,13.835V200H56V173.835A16,16,0,0,1,48,160Zm64-96H80V48h32Zm0,32H48V80h64Zm0,32H48V112h64ZM48,376a16,16,0,1,1,24,13.835V416H56V389.835A16,16,0,0,1,48,376Zm64-96H48V264h64Zm0,32H48V296h64Zm0,32H48V328h64Zm48-184a16,16,0,1,1,24,13.835V200H168V173.835A16,16,0,0,1,160,160Zm72-96H160V48h72Zm0,32H160V80h72Zm0,32H160V112h72ZM160,376a16,16,0,1,1,24,13.835V416H168V389.835A16,16,0,0,1,160,376Zm72-96H160V264h72Zm0,32H160V296h72Zm0,32H160V328h72ZM352,64H280V48h72ZM280,80h72V96H280Zm0,32h72v16H280Zm8,304V389.835a16,16,0,1,1,16,0V416Zm8-152v16H280V264Zm-16,32h72v16H280Zm72,48H280V328h72ZM464,64H400V48h64ZM440,96V80h24V96Zm-32,72H392V152h16Zm49.261,32H448V136a40.045,40.045,0,0,0-40-40h-8a40.045,40.045,0,0,0-40,40,8,8,0,0,0,8,8v4.687l-13.657,13.656a8,8,0,0,0,2.079,12.812L368,180.944v19.9A38.671,38.671,0,0,0,345.846,214.4l-7.727-42.343A23.923,23.923,0,0,0,314.446,152h-4.611a15.972,15.972,0,0,0-29.793,7.181C280.014,159.45,280,192,280,192a8,8,0,0,0,8,8h5.752l13.289,58.562A37.554,37.554,0,0,0,368,279.085V451.719L352.208,462.25A18.419,18.419,0,0,0,362.42,496H456a8,8,0,0,0,8-8V464h24a8,8,0,0,0,8-8V392H480v56H464V374.624A23.885,23.885,0,0,0,472,376h16a8,8,0,0,0,8-8V238.738A38.782,38.782,0,0,0,457.261,200ZM400,112h8a24.027,24.027,0,0,1,24,24v8.923A21.849,21.849,0,0,1,424,128a8,8,0,0,0-11.578-7.155A68.138,68.138,0,0,1,382.111,128h-4.74A24.042,24.042,0,0,1,400,112Zm-18.343,45.657A8,8,0,0,0,384,152v-8c0-.014,0-.027,0-.04a84.293,84.293,0,0,0,25.717-4.648,37.823,37.823,0,0,0,15.155,20.219l7.125,4.75V200H392a8.009,8.009,0,0,1-8-8V176a8,8,0,0,0-4.422-7.155l-6.073-3.036Zm-73.9,32.4A8,8,0,0,0,300,184h-4V168h18.446a7.976,7.976,0,0,1,7.891,6.685L326.556,200H310.245ZM384.178,480H362.42a2.393,2.393,0,0,1-1.7-.69,2.424,2.424,0,0,1,.356-3.744L378.423,464h11.559a18.139,18.139,0,0,0-5.8,16ZM448,480H402.422a2.422,2.422,0,0,1-1.343-4.438L418.422,464H448Zm0-32H424V344H408V448H384V328h64Zm32-88h-8a8.009,8.009,0,0,1-8-8v-8h16Zm0-32H464V232H448v80H384V240a8,8,0,0,0-15.845-1.569l-3.242,16.21a21.593,21.593,0,0,1-42.253.45L313.973,216h15.781l6.485,25.94a8,8,0,0,0,15.522,0l2.179-8.716A22.707,22.707,0,0,1,376,216h81.261A22.764,22.764,0,0,1,480,238.738ZM64,64H48V48H64Z"/></g></svg>
