<svg height="512" viewBox="0 0 512 512" width="512" xmlns="http://www.w3.org/2000/svg"><g id="Filled_outline" data-name="Filled outline"><path d="m384 56h40a24 24 0 0 1 24 24v288a0 0 0 0 1 0 0h-64a0 0 0 0 1 0 0v-312a0 0 0 0 1 0 0z" fill="#294154"/><path d="m304 176 32-96 2.53-7.589a24 24 0 0 1 22.77-16.411h62.7a22.2 22.2 0 0 0 -21.06 15.179l-2.94 8.821-32 96z" fill="#324f66"/><path d="m64 56h64a0 0 0 0 1 0 0v288a24 24 0 0 1 -24 24h-40a0 0 0 0 1 0 0v-312a0 0 0 0 1 0 0z" fill="#294154" transform="matrix(-1 0 0 -1 192 424)"/><path d="m208 176-32-96-2.53-7.589a24 24 0 0 0 -22.77-16.411h-62.7a22.2 22.2 0 0 1 21.06 15.179l2.94 8.821 32 96z" fill="#324f66"/><path d="m224 104h-32v-48a19.315 19.315 0 0 1 5.657-13.657l12.686-12.686a19.315 19.315 0 0 1 13.657-5.657z" fill="#324f66"/><path d="m240 8h32v64h-32z" fill="#294154" transform="matrix(0 -1 1 0 216 296)"/><path d="m288 104h32v-48a19.315 19.315 0 0 0 -5.657-13.657l-12.686-12.686a19.315 19.315 0 0 0 -13.657-5.657z" fill="#324f66"/><path d="m416 488h-224a32 32 0 0 1 -32-32v-248a120 120 0 0 1 120-120h48a120 120 0 0 1 120 120v248a32 32 0 0 1 -32 32z" fill="#c13b25"/><path d="m336 488h-240a32 32 0 0 1 -32-32v-248a120 120 0 0 1 120-120h64a120 120 0 0 1 120 120v248a32 32 0 0 1 -32 32z" fill="#de5540"/><path d="m448 456a32 32 0 0 1 -32 32h-80a32 32 0 0 0 32-32v-120h80z" fill="#c94732"/><path d="m64 336h304a0 0 0 0 1 0 0v120a32 32 0 0 1 -32 32h-240a32 32 0 0 1 -32-32v-120a0 0 0 0 1 0 0z" fill="#de5540"/><path d="m64 368h304v16h-304z" fill="#d6513c"/><path d="m136 402.46v1.54a20 20 0 0 1 -40 0v-1.54a19.884 19.884 0 0 1 .6-4.85l7.4-29.61h24l7.4 29.61a19.884 19.884 0 0 1 .6 4.85z" fill="#ffb431"/><path d="m132 384h-32l4-16h24z" fill="#f9a614"/><rect fill="#d6513c" height="40" rx="8" width="96" x="240" y="416"/><rect fill="#f1ddc1" height="40" rx="8" width="96" x="224" y="416"/><path d="m312 416h-16a8 8 0 0 1 8 8v24a8 8 0 0 1 -8 8h16a8 8 0 0 0 8-8v-24a8 8 0 0 0 -8-8z" fill="#e9d6bb"/><path d="m392 368h56v16h-56z" fill="#c13b25"/><path d="m173.657 186.343 36.686-36.686a19.315 19.315 0 0 1 13.657-5.657 19.315 19.315 0 0 1 13.657 5.657l36.686 36.686a19.315 19.315 0 0 1 5.657 13.657 19.315 19.315 0 0 1 -5.657 13.657l-36.686 36.686a19.315 19.315 0 0 1 -13.657 5.657 19.315 19.315 0 0 1 -13.657-5.657l-36.686-36.686a19.315 19.315 0 0 1 -5.657-13.657 19.315 19.315 0 0 1 5.657-13.657z" fill="#ffb431"/><path d="m64 336h304v32h-304z" fill="#e86954"/><path d="m71.95 240.582-16 .051.684 216a40.046 40.046 0 0 0 40.126 39.872l240-.759 80-.253a40.047 40.047 0 0 0 39.874-40.127l-.127-40-16 .05.127 40a24.029 24.029 0 0 1 -23.924 24.076l-48.022.152a39.8 39.8 0 0 0 7.946-24.026l-.354-112 64-.2.051 16-48 .152.051 16 48-.152.076 24 16-.05-1.012-320a32.035 32.035 0 0 0 -32.1-31.9l-62.7.2a31.967 31.967 0 0 0 -30.29 21.976l-2.913 8.83-.072-22.7a27.316 27.316 0 0 0 -8.071-19.293l-12.72-12.639a27.142 27.142 0 0 0 -19.339-7.942l-64 .2a27.138 27.138 0 0 0 -19.292 8.064l-12.639 12.722a27.32 27.32 0 0 0 -7.942 19.343l.072 22.7-2.97-8.814a31.966 31.966 0 0 0 -30.427-21.782l-62.7.2a32.038 32.038 0 0 0 -31.9 32.1l.4 128 .051 16 16-.051-.051-16a112.127 112.127 0 0 1 111.651-112.353l64-.2a112.128 112.128 0 0 1 112.354 111.642l.379 120-288 .911zm.05-94.488v-66.094a16.019 16.019 0 0 1 16-16 14.2 14.2 0 0 1 13.47 9.71l9.7 29.1a128.942 128.942 0 0 0 -39.17 43.284zm53.206-51.768-8.556-25.671a30.411 30.411 0 0 0 -1.989-4.655h36.039a15.984 15.984 0 0 1 15.18 10.94l2.023 6.069a127 127 0 0 0 -42.697 13.317zm90.794-14.326h-16v-24a11.315 11.315 0 0 1 3.317-8l12.683-12.683zm64 0h-48v-16h48zm0-32h-48v-16h48zm56.708 431.746-240 .759a24.028 24.028 0 0 1 -24.076-23.924l-.253-80 21.754-.069-4.855 19.688a34.045 34.045 0 0 0 -.809 8.331 28 28 0 0 0 56-.177 33.9 33.9 0 0 0 -.863-8.327l-4.98-19.655 221.753-.7.253 80a24.028 24.028 0 0 1 -23.924 24.074zm-232.708-75.746a18.03 18.03 0 0 1 .357-4.448l5.889-23.552h11.508l5.888 23.551c1.95 7.8-3 16.449-11.642 16.449a12.013 12.013 0 0 1 -12-12zm336-76h-24v-120a128.02 128.02 0 0 0 -60.118-108.468 111.091 111.091 0 0 1 31.185 13.307c.118.072.236.141.355.208a111.435 111.435 0 0 1 52.578 94.953zm-29.469-254.3a14.2 14.2 0 0 1 13.469-9.7 16.019 16.019 0 0 1 16 16v65.825a127.768 127.768 0 0 0 -39.15-43.067zm-64.412 1.238a15.985 15.985 0 0 1 15.181-10.938h36.038a30.477 30.477 0 0 0 -1.987 4.649l-8.551 25.657a127.625 127.625 0 0 0 -42.712-13.275zm-34.119 5.062h-16v-44.687l12.683 12.687a11.308 11.308 0 0 1 3.317 8zm3.834 19.5a112.2 112.2 0 0 1 84.166 108.5v120h-24v-120a128.021 128.021 0 0 0 -60.166-108.5zm44.444 244.169.05 16-288 .911-.051-16zm-47.8 64.151-80 .253a16.02 16.02 0 0 0 -15.95 16.051l.076 24a16.019 16.019 0 0 0 16.051 15.95l80-.253a16.018 16.018 0 0 0 15.95-16.051l-.076-24a16.018 16.018 0 0 0 -16.049-15.948zm.127 40-80 .253-.076-24 80-.253.086 24zm-88.605-183.82a27.135 27.135 0 0 0 19.314-8l36.686-36.686a27.314 27.314 0 0 0 0-38.628l-36.686-36.686a27.314 27.314 0 0 0 -38.628 0l-36.686 36.686a27.314 27.314 0 0 0 0 38.628l36.686 36.686a27.135 27.135 0 0 0 19.314 8zm-48-64a11.24 11.24 0 0 1 3.314-8l36.686-36.686a11.313 11.313 0 0 1 16 0l36.686 36.686a11.313 11.313 0 0 1 0 16l-36.686 36.686a11.313 11.313 0 0 1 -16 0l-36.686-36.686a11.24 11.24 0 0 1 -3.314-8zm40 16h-16v-32h16zm32 0h-16v-32h16z"/></g></svg>