<svg height="512" viewBox="0 0 512 512" width="512" xmlns="http://www.w3.org/2000/svg"><g id="Filled_outline" data-name="Filled outline"><path d="m375.58 329.569 58.525-15.961a8 8 0 0 0 5.895-7.718v-33.89h32v39.559a32 32 0 0 1 -23.58 30.872l-58.52 15.961a8 8 0 0 0 -5.9 7.718v33.89h-32v-39.559a32 32 0 0 1 23.58-30.872z" fill="#f9a614"/><circle cx="456" cy="264" fill="#ffb431" r="24"/><path d="m400 392v80a16 16 0 0 1 -16 16h-256a16 16 0 0 1 -16-16v-80a16 16 0 0 1 16-16h38.7a24.005 24.005 0 0 0 22.77-16.41l10.53-31.59h112l10.53 31.59c.05.14.09.28.14.41a24.02 24.02 0 0 0 22.63 16h38.7a16 16 0 0 1 16 16z" fill="#de5540"/><circle cx="256" cy="184" fill="#ffb431" r="160"/><ellipse cx="256" cy="432" fill="#ffb431" rx="48" ry="24"/><path d="m274.144 168h-27.713l-13.857 24 13.857 24h27.713l13.856-24z" fill="#f9a614"/><path d="m269.856 160h-27.712l-13.857 24 13.857 24h27.712l13.857-24z" fill="#d5d5d3"/><circle cx="256" cy="184" fill="#dfdfdd" r="16"/><path d="m101.982 116.8a166.828 166.828 0 0 0 -13.982 67.2c0 68.569 41.3 127.664 100.32 153.748l-6.439 19.31a15.985 15.985 0 0 1 -15.181 10.942h-38.7a24.028 24.028 0 0 0 -24 24v80a24.028 24.028 0 0 0 24 24h256a24.028 24.028 0 0 0 24-24v-40h-16v40a8.009 8.009 0 0 1 -8 8h-256a8.009 8.009 0 0 1 -8-8v-80a8.009 8.009 0 0 1 8-8h38.7a31.967 31.967 0 0 0 30.359-21.88l6.205-18.607a168.087 168.087 0 0 0 105.472 0l6.2 18.609a32.084 32.084 0 0 0 2.674 5.878h-109.61v16h176a8.009 8.009 0 0 1 8 8v24h16v-24a24.04 24.04 0 0 0 -16-22.623v-3.27l58.521-15.96a40.092 40.092 0 0 0 29.479-38.587v-26.428a32 32 0 1 0 -48 0v20.762l-58.521 15.96a40.092 40.092 0 0 0 -29.479 38.586v7.507a15.985 15.985 0 0 1 -13.881-10.887l-6.44-19.312c59.021-26.084 100.321-85.179 100.321-153.748 0-92.636-75.364-168-168-168a167.937 167.937 0 0 0 -145.52 83.994l13.85 8.012a151.938 151.938 0 0 1 131.67-76.006c83.813 0 152 68.187 152 152s-68.187 152-152 152-152-68.187-152-152a150.907 150.907 0 0 1 12.645-60.8zm354.018 131.2a16 16 0 1 1 -16 16 16.019 16.019 0 0 1 16-16zm-96 112.44a24.057 24.057 0 0 1 17.685-23.152l58.515-15.959a16.035 16.035 0 0 0 11.8-15.439v-10.9a32.1 32.1 0 0 0 16 0v16.57a24.057 24.057 0 0 1 -17.685 23.152l-58.515 15.959a16.035 16.035 0 0 0 -11.8 15.439v1.89h-16zm-208 55.56h-16v-16h16zm-16 32h16v16h-16zm240-32h-16v-16h16zm-16 32h16v16h-16zm-172.006-381.8 8.012 13.85a120.723 120.723 0 0 0 -11.633 7.662l-9.559-12.83a136.484 136.484 0 0 1 13.18-8.682zm-23.835 17.492 10.809 11.8a120.62 120.62 0 0 0 -36.863 66l-15.718-2.982a136.721 136.721 0 0 1 41.772-74.818zm35.841 348.308c0 18.243 24.075 32 56 32s56-13.757 56-32-24.075-32-56-32-56 13.757-56 32zm96 0c0 6.523-15.582 16-40 16s-40-9.477-40-16 15.582-16 40-16 40 9.477 40 16zm-19.216-276a8 8 0 0 0 -6.928-4h-27.712a8 8 0 0 0 -6.928 4l-13.857 24a8 8 0 0 0 0 8l13.857 24a8 8 0 0 0 6.928 4h27.712a8 8 0 0 0 6.928-4l13.857-24a8 8 0 0 0 0-8zm-20.784 44a16 16 0 1 1 16-16 16.019 16.019 0 0 1 -16 16zm0-80v16a48.053 48.053 0 0 0 -48 48h-16a64.072 64.072 0 0 1 64-64zm47.514 70.867 15.838 2.266a64.279 64.279 0 0 1 -63.352 54.867v-16a48.2 48.2 0 0 0 47.514-41.133zm138.768 27.12-4.564-15.336a64.131 64.131 0 0 1 54.859 8.826l-9.154 13.123a48.125 48.125 0 0 0 -41.141-6.613zm-362.334 19.683a183.942 183.942 0 0 0 54.347 84.33l-10.588 12a199.923 199.923 0 0 1 -59.065-91.67zm369.752-103.664-15.5 3.988a185.164 185.164 0 0 0 -63.2-97.64l10-12.485a201.259 201.259 0 0 1 68.7 106.137z"/></g></svg>