<svg height="512" viewBox="0 0 512 512" width="512" xmlns="http://www.w3.org/2000/svg"><g id="Filled_outline" data-name="Filled outline"><path d="m480 331.53v52.47h-448v-52.47a23.989 23.989 0 0 1 9.01-18.74l24.4-19.52 6.59-5.27v-200a64 64 0 0 1 64-64h240a64 64 0 0 1 64 64v200l6.63 5.31 24.36 19.48a23.989 23.989 0 0 1 9.01 18.74z" fill="#ffb431"/><circle cx="128" cy="72" fill="#de5540" r="16"/><circle cx="160" cy="72" fill="#ffb431" r="16"/><path d="m208 48h96v40h-96z" fill="#dfdfdd"/><path d="m32 384h96a0 0 0 0 1 0 0v88a16 16 0 0 1 -16 16h-64a16 16 0 0 1 -16-16v-88a0 0 0 0 1 0 0z" fill="#426887"/><path d="m384 384h96a0 0 0 0 1 0 0v88a16 16 0 0 1 -16 16h-64a16 16 0 0 1 -16-16v-88a0 0 0 0 1 0 0z" fill="#426887"/><path d="m32 384h96v64h-96z" fill="#3c6180"/><path d="m384 384h96v64h-96z" fill="#3c6180"/><g fill="#35546d"><path d="m56 384h16v104h-16z"/><path d="m88 384h16v104h-16z"/><path d="m408 384h16v104h-16z"/><path d="m440 384h16v104h-16z"/></g><path d="m32 384h448a0 0 0 0 1 0 0v32a16 16 0 0 1 -16 16h-416a16 16 0 0 1 -16-16v-32a0 0 0 0 1 0 0z" fill="#426887"/><rect fill="#dfdfdd" height="40" rx="8" width="80" x="32" y="344"/><path d="m40 344h24a0 0 0 0 1 0 0v40a0 0 0 0 1 0 0h-32a0 0 0 0 1 0 0v-32a8 8 0 0 1 8-8z" fill="#de5540"/><rect fill="#dfdfdd" height="40" rx="8" transform="matrix(-1 0 0 -1 880 728)" width="80" x="400" y="344"/><path d="m448 344h32a0 0 0 0 1 0 0v40a0 0 0 0 1 0 0h-24a8 8 0 0 1 -8-8v-32a0 0 0 0 1 0 0z" fill="#de5540" transform="matrix(-1 0 0 -1 928 728)"/><rect fill="#4db6e4" height="160" rx="24" width="368" x="72" y="88"/><path d="m416 88h-320a24 24 0 0 0 -24 24v16a24 24 0 0 1 24-24h320a24 24 0 0 1 24 24v-16a24 24 0 0 0 -24-24z" fill="#4aafdb"/><path d="m416 248h-320a24 24 0 0 1 -24-24h368a24 24 0 0 1 -24 24z" fill="#3ba5d3"/><path d="m398.321 224h-108.642l6.419-57.767a16 16 0 0 1 15.902-14.233h64a16 16 0 0 1 15.9 14.233z" fill="#3ba5d3"/><rect fill="#dfdfdd" height="64" rx="8" width="112" x="200" y="376"/><path d="m232 400h16v16h-16z" fill="#cececc"/><path d="m264 400h16v16h-16z" fill="#cececc"/><circle cx="384" cy="72" fill="#de5540" r="16"/><circle cx="352" cy="72" fill="#ffb431" r="16"/><path d="m312 384h16v48h-16z" fill="#3c6180"/><rect fill="#426887" height="112" rx="8" width="48" x="24" y="120"/><rect fill="#426887" height="112" rx="8" transform="matrix(-1 0 0 -1 928 352)" width="48" x="440" y="120"/><path d="m152 272h96v16h-96zm112 16h96v-16h-96zm-112 32h96v-16h-96zm112 0h96v-16h-96zm-112 32h96v-16h-96zm112 0h96v-16h-96zm232-224v96a16.019 16.019 0 0 1 -16 16h-8v8a24.027 24.027 0 0 1 -24 24v12.155l27.987 22.388a31.842 31.842 0 0 1 12.013 24.987v116.47h-16v-9.376a23.885 23.885 0 0 1 -8 1.376h-8v40h8a8.009 8.009 0 0 0 8-8v-8h16v8a24.027 24.027 0 0 1 -24 24h-64a24.027 24.027 0 0 1 -24-24v-32h-56a8 8 0 0 1 -8 8h-112a8 8 0 0 1 -8-8h-88v40h8a8.009 8.009 0 0 0 8-8v-16h16v16a24.028 24.028 0 0 1 -24 24h-64a24.028 24.028 0 0 1 -24-24v-140.47a31.844 31.844 0 0 1 12.012-24.987l27.988-22.388v-12.155a24.027 24.027 0 0 1 -24-24v-8h-8a16.019 16.019 0 0 1 -16-16v-64h16v64h32v-96h-32v16h-16v-16a16.019 16.019 0 0 1 16-16h8v-8a24.027 24.027 0 0 1 24-24h.455a72.1 72.1 0 0 1 71.545-64h240a72.1 72.1 0 0 1 71.545 64h.455a24.027 24.027 0 0 1 24 24v8h8a16.019 16.019 0 0 1 16 16zm-120 80v16h-29.578l24 16h45.578a16.019 16.019 0 0 0 16-16v-112a16.019 16.019 0 0 0 -16-16h-152v144h77.578l-24-16h-37.578v-16zm-80-128v-16h-80v16zm56 0a8 8 0 1 0 -8-8 8.009 8.009 0 0 0 8 8zm32 0a8 8 0 1 0 -8-8 8.009 8.009 0 0 0 8 8zm-303.858 4.224a31.786 31.786 0 0 1 15.858-4.224h8v-8a23.991 23.991 0 0 1 24-24h32a23.991 23.991 0 0 1 24 24v8h16v-24a8 8 0 0 1 8-8h96a8 8 0 0 1 8 8v24h16v-8a23.991 23.991 0 0 1 24-24h32a23.991 23.991 0 0 1 24 24v8h8a31.786 31.786 0 0 1 15.858 4.224 56.062 56.062 0 0 0 -55.858-52.224h-240a56.062 56.062 0 0 0 -55.858 52.224zm79.858-20.224a8 8 0 1 0 8 8 8.009 8.009 0 0 0 -8-8zm-32 0a8 8 0 1 0 8 8 8.009 8.009 0 0 0 -8-8zm-48 160a16.019 16.019 0 0 0 16 16h45.578l24-16h-29.578v-16h96v16h-37.578l-24 16h77.578v-144h-152a16.019 16.019 0 0 0 -16 16zm-16-112v-16a8.009 8.009 0 0 0 -8 8v8zm0 144v-16h-8v8a8.009 8.009 0 0 0 8 8zm-24 120h16v-24h-16zm16 64h-8a23.885 23.885 0 0 1 -8-1.376v33.376a8.009 8.009 0 0 0 8 8h8zm32 0h-16v40h16zm104-48h-152v24a8.009 8.009 0 0 0 8 8h144zm-88-16h.01l-.01-24h-32v24zm200 8h-96v48h96zm104 56h-16v32a8.009 8.009 0 0 0 8 8h8zm32 0h-16v40h16zm32-88h-16v24h16zm-32.751-54.356-51.28 29.3-7.938-13.892 51.969-29.695v-31.657a31.793 31.793 0 0 1 -16 4.3h-25.376a23.889 23.889 0 0 1 1.376 8v24h-16v-24a8.009 8.009 0 0 0 -8-8h-224a8.009 8.009 0 0 0 -8 8v24h-16v-24a23.889 23.889 0 0 1 1.376-8h-25.376a31.793 31.793 0 0 1 -16-4.3v31.662l51.969 29.7-7.938 13.892-51.28-29.3-26.744 21.383a15.921 15.921 0 0 0 -6.007 12.493v4.47h64a16.019 16.019 0 0 1 16 16v24h72a8 8 0 0 1 8-8h112a8 8 0 0 1 8 8v48h144a8.009 8.009 0 0 0 8-8v-24h-136v-16h56v-24a16.019 16.019 0 0 1 16-16h64v-4.47a15.921 15.921 0 0 0 -6.007-12.493zm-31.249 54.356h-.01l.01 24h32v-24zm40-240h8v-8a8.009 8.009 0 0 0 -8-8zm8 128h-8v16a8.009 8.009 0 0 0 8-8zm24-112h-32v96h32zm-368-16h-16v16h16zm0 32h-16v64h16zm136 256h-16v16h16zm32 0h-16v16h16z"/></g></svg>