<svg height="512" viewBox="0 0 512 512" width="512" xmlns="http://www.w3.org/2000/svg"><g id="Filled_outline" data-name="Filled outline"><path d="m24 224h464v216h-464z" fill="#deccb2"/><path d="m488 224h-464v-32l88-88h288l88 88z" fill="#3c6180"/><path d="m24 192h464v32h-464z" fill="#35546d"/><path d="m344 224h-176v-32l88-88 88 88z" fill="#edd7b9"/><path d="m304 192h-96l48-48z" fill="#deccb2"/><path d="m224 72h64v32h-64z" fill="#edd7b9"/><path d="m256 40a32 32 0 0 1 32 32 0 0 0 0 1 0 0h-64a0 0 0 0 1 0 0 32 32 0 0 1 32-32z" fill="#f9e4c8"/><path d="m112 72h32v32h-32z" fill="#deccb2"/><path d="m368 72h32v32h-32z" fill="#deccb2"/><path d="m168 192h176v32h-176z" fill="#edd7b9"/><path d="m168 224h32v152h-32z" fill="#f1ddc1"/><path d="m312 224h32v152h-32z" fill="#f1ddc1"/><path d="m168 224h32v24h-32z" fill="#e4d1b7"/><path d="m312 224h32v24h-32z" fill="#e4d1b7"/><path d="m272 376h-32v-24a16 16 0 0 1 16-16 16 16 0 0 1 16 16z" fill="#cdbca4"/><path d="m24 376h112v64h-112z" fill="#844e3a"/><path d="m376 376h112v64h-112z" fill="#844e3a"/><path d="m168 376h176v32h-176z" fill="#e4d1b7"/><path d="m168 408h176v32h-176z" fill="#edd7b9"/><g fill="#f9e4c8"><path d="m168 344h32v32h-32z"/><path d="m312 344h32v32h-32z"/><path d="m136 376h32v64h-32z"/><path d="m344 376h32v64h-32z"/></g><path d="m24 440h464v48h-464z" fill="#96b268"/><path d="m424 488h-336l48-48h240z" fill="#f1ddc1"/><g fill="#d8c6ad"><path d="m200 224h112v24h-112z"/><path d="m24 224h144v24h-144z"/><path d="m344 224h144v24h-144z"/><path d="m344 224h16v152h-16z"/><path d="m200 224h16v152h-16z"/></g><path d="m376 376h24v64h-24z" fill="#7d4935"/><path d="m408 100.686v-28.686a8 8 0 0 0 -8-8h-32a8 8 0 0 0 -8 8v24h-64v-24a40.068 40.068 0 0 0 -32-39.195v-16.805h-16v16.805a40.068 40.068 0 0 0 -32 39.195v24h-64v-24a8 8 0 0 0 -8-8h-32a8 8 0 0 0 -8 8v28.686l-21.657 21.657 11.314 11.314 21.656-21.657h121.373l-72 72h-121.372l38.093-38.093-11.314-11.314-51.75 51.75a8 8 0 0 0 -2.343 5.657v296a8 8 0 0 0 8 8h464a8 8 0 0 0 8-8v-144h-16v24h-80v16h80v48h-96v-56a8 8 0 0 0 -8-8h-24v-168h128v16h-112v16h112v96h16v-136a8 8 0 0 0 -2.343-5.657zm-272-4.686h-16v-16h16zm240-16h16v16h-16zm-120-32a24.042 24.042 0 0 1 22.629 16h-45.258a24.042 24.042 0 0 1 22.629-16zm-24 48v-16h48v16zm24 19.313 68.687 68.687h-17.373l-45.657-45.657a8 8 0 0 0 -11.314 0l-45.657 45.657h-17.373zm28.687 68.687h-57.374l28.687-28.687zm-108.687 16h160v16h-160zm144 136v-104h16v104zm16 16v16h-16v-16zm-80-24a24.028 24.028 0 0 0 -24 24v16h-24v-136h96v136h-24v-16a24.028 24.028 0 0 0 -24-24zm8 24v16h-16v-16a8 8 0 0 1 16 0zm-88-120h16v104h-16zm0 120h16v16h-16zm0 64h24v-16h-24v-16h160v16h-120v16h120v16h-160zm-144-32h80v-16h-80v-136h112v-16h-112v-16h128v168h-24a8 8 0 0 0 -8 8v56h-96zm128 0v48h-16v-48zm-128 96v-32h84.686l-32 32zm448-32v32h-52.686l-32-32zm-75.313 32h-297.374l32-32h233.374zm-36.687-96v48h-16v-48zm-20.686-200-72-72h121.373l72 72zm-219.314-56v16h-16v-16zm32 24v16h-24v-16zm160-24h24v16h-24zm-136-8v16h-16v-16zm168 32h24v16h-24zm32-24h16v16h-16zm-304 40v-16h16v16zm-24 80h16v24h-16zm32 0h16v24h-16zm48 24h-16v-24h16zm-80 16h16v24h-16zm32 0h16v24h-16zm48 24h-16v-24h16zm-80 16h16v24h-16zm32 0h16v24h-16zm48 24h-16v-24h16zm96-64h16v24h-16zm48 24h-16v-24h16zm-48-64h16v24h-16zm48 24h-16v-24h16zm112 0h-16v-24h16zm32 0h-16v-24h16zm32 0h-16v-24h16zm-64 40h-16v-24h16zm32 0h-16v-24h16zm32 0h-16v-24h16zm-80 16h16v24h-16zm32 0h16v24h-16zm32 0h16v24h-16zm-384 72h16v16h-16zm32 0h16v16h-16zm336 0v16h-16v-16zm32 0v16h-16v-16z"/></g></svg>