<svg height="512" viewBox="0 0 512 512" width="512" xmlns="http://www.w3.org/2000/svg"><g id="Filled_outline" data-name="Filled outline"><path d="m416 264h-6.311a190.53 190.53 0 0 0 -105.689 32 190.53 190.53 0 0 0 -105.689-32h-6.311v-176h224z" fill="#395d7b"/><path d="m304 168-168-72 168-72 168 72z" fill="#426887"/><path d="m495.589 261.47-15.589-46.77v-118.7a8 8 0 0 0 -8-8h-160v16h152v110.7l-15.589 46.77a8 8 0 0 0 7.589 10.53h32a8 8 0 0 0 7.589-10.53z" fill="#395d7b"/><circle cx="304" cy="96" fill="#517694" r="16"/><rect fill="#dfdfdd" height="256" rx="24" width="336" x="24" y="232"/><path d="m64 232h256v256h-256z" fill="#348ed8"/><rect fill="#de5540" height="32" rx="6" width="32" x="104" y="280"/><rect fill="#96b268" height="32" rx="6" width="32" x="176" y="280"/><rect fill="#4db6e4" height="32" rx="6" width="32" x="248" y="280"/><rect fill="#ffb431" height="32" rx="6" width="32" x="104" y="344"/><rect fill="#de5540" height="32" rx="6" width="32" x="176" y="344"/><rect fill="#de5540" height="32" rx="6" width="32" x="248" y="344"/><rect fill="#4db6e4" height="32" rx="6" width="32" x="104" y="408"/><rect fill="#96b268" height="32" rx="6" width="32" x="176" y="408"/><rect fill="#4db6e4" height="32" rx="6" width="32" x="248" y="408"/><path d="m64 232h16v256h-16z" fill="#3289d1"/><path d="m304 232h16v256h-16z" fill="#3289d1"/><path d="m480 214.7v-118.7a8 8 0 0 0 -4.849-7.354l-168-72a8.011 8.011 0 0 0 -6.3 0l-74.667 32 6.3 14.708 71.516-30.654 129.025 55.3h-106.4a24 24 0 1 0 0 16h106.4l-129.025 55.3-147.691-63.3 62.842-26.933-6.3-14.707-80 34.286a8 8 0 0 0 0 14.708l51.149 21.921v84.725h16v-77.867l100.849 43.221a8.008 8.008 0 0 0 6.3 0l100.851-43.221v123.874a199.147 199.147 0 0 0 -25.256 1.83l2.173 15.851a183.132 183.132 0 0 1 24.773-1.688h6.31a8 8 0 0 0 8-8v-138.725l40-17.142v106.567l-15.589 46.77a8 8 0 0 0 7.589 10.53h32a8 8 0 0 0 7.589-10.53zm-176-110.7a8 8 0 1 1 8-8 8.009 8.009 0 0 1 -8 8zm163.1 152 4.9-14.7 4.9 14.7zm-235.1-88h-16v-16h16zm-16 16h16v24h-16zm120 40h-288a32.036 32.036 0 0 0 -32 32v16h16v-16a16.019 16.019 0 0 1 16-16h8v240h-8a16.019 16.019 0 0 1 -16-16v-176h-16v176a32.036 32.036 0 0 0 32 32h288a32.036 32.036 0 0 0 32-32v-24h-16v24a16.019 16.019 0 0 1 -16 16h-8v-240h8a16.019 16.019 0 0 1 16 16v168h16v-168a32.036 32.036 0 0 0 -32-32zm-24 256h-240v-240h240zm-202-160h20a14.015 14.015 0 0 0 14-14v-20a14.015 14.015 0 0 0 -14-14h-20a14.015 14.015 0 0 0 -14 14v20a14.015 14.015 0 0 0 14 14zm2-32h16v16h-16zm70 32h20a14.015 14.015 0 0 0 14-14v-20a14.015 14.015 0 0 0 -14-14h-20a14.015 14.015 0 0 0 -14 14v20a14.015 14.015 0 0 0 14 14zm2-32h16v16h-16zm70 32h20a14.015 14.015 0 0 0 14-14v-20a14.015 14.015 0 0 0 -14-14h-20a14.015 14.015 0 0 0 -14 14v20a14.015 14.015 0 0 0 14 14zm2-32h16v16h-16zm-146 96h20a14.015 14.015 0 0 0 14-14v-20a14.015 14.015 0 0 0 -14-14h-20a14.015 14.015 0 0 0 -14 14v20a14.015 14.015 0 0 0 14 14zm2-32h16v16h-16zm70 32h20a14.015 14.015 0 0 0 14-14v-20a14.015 14.015 0 0 0 -14-14h-20a14.015 14.015 0 0 0 -14 14v20a14.015 14.015 0 0 0 14 14zm2-32h16v16h-16zm70 32h20a14.015 14.015 0 0 0 14-14v-20a14.015 14.015 0 0 0 -14-14h-20a14.015 14.015 0 0 0 -14 14v20a14.015 14.015 0 0 0 14 14zm2-32h16v16h-16zm-146 96h20a14.015 14.015 0 0 0 14-14v-20a14.015 14.015 0 0 0 -14-14h-20a14.015 14.015 0 0 0 -14 14v20a14.015 14.015 0 0 0 14 14zm2-32h16v16h-16zm70 32h20a14.015 14.015 0 0 0 14-14v-20a14.015 14.015 0 0 0 -14-14h-20a14.015 14.015 0 0 0 -14 14v20a14.015 14.015 0 0 0 14 14zm2-32h16v16h-16zm70 32h20a14.015 14.015 0 0 0 14-14v-20a14.015 14.015 0 0 0 -14-14h-20a14.015 14.015 0 0 0 -14 14v20a14.015 14.015 0 0 0 14 14zm2-32h16v16h-16zm-184-224v16h-16v-16zm96 0v16h-80v-16z"/></g></svg>