<svg height="512" viewBox="0 0 512 512" width="512" xmlns="http://www.w3.org/2000/svg"><g id="Filled_outline" data-name="Filled outline"><path d="m176 160h80a0 0 0 0 1 0 0v152a0 0 0 0 1 0 0h-32a48 48 0 0 1 -48-48v-104a0 0 0 0 1 0 0z" fill="#fcab1e"/><path d="m200 184h16v104h-16z" fill="#f99e0c"/><path d="m138.84 488a26.84 26.84 0 0 1 -26.84-26.84 106.892 106.892 0 0 1 3.192-25.927l30.748-122.994a32 32 0 0 1 31.045-24.239h31.015l-43.062 179.424a26.839 26.839 0 0 1 -26.098 20.576z" fill="#844e3a"/><path d="m312 288v200h-128v-48a40 40 0 0 1 -40-40v-3.89a40 40 0 0 1 6.72-22.19l57.28-85.92h8a16 16 0 0 0 16-16v-48h56v48a16 16 0 0 0 16 16z" fill="#fdc8a2"/><path d="m304 288-21.171 31.756a36.475 36.475 0 0 1 -30.351 16.244 36.478 36.478 0 0 1 -36.478-36.478v-11.522h-8l-57.282 85.923a40 40 0 0 0 -6.718 22.188v3.889a40 40 0 0 0 40 40v48h128v-200z" fill="#96b268"/><path d="m288 224v40h-32a79.668 79.668 0 0 1 -24-3.67v-36.33z" fill="#fdbf92"/><path d="m88 328h104v160h-104z" fill="#f1ddc1"/><path d="m160 488h-92a12 12 0 0 1 -12-12v-136a12 12 0 0 1 12-12h92z" fill="#de5540"/><path d="m336 288h-24v136a8 8 0 0 1 -8 8h-88v56h104a48 48 0 0 0 48-48v-120a32 32 0 0 0 -32-32z" fill="#844e3a"/><path d="m208 424-16-16v24h-36a12 12 0 0 0 -12 12v32a12 12 0 0 0 12 12h60v-56z" fill="#fdc8a2"/><path d="m184 128a0 0 0 0 1 0 0v48a0 0 0 0 1 0 0 24 24 0 0 1 -24-24 24 24 0 0 1 24-24z" fill="#fdb683"/><path d="m304 248h-48a80 80 0 0 1 -80-80v-64a64 64 0 0 1 64-64h64z" fill="#fdc8a2"/><path d="m352 104v152a63.966 63.966 0 0 1 -64 64v-200l-57.82-32.12-14.18-7.88-40 24a80 80 0 0 1 80-80h16c1.21 0 2.42.03 3.62.08a80 80 0 0 1 76.38 79.92z" fill="#fcab1e"/><path d="m352 104v152a63.8 63.8 0 0 1 -18.74 45.26 61.692 61.692 0 0 1 -5.26 4.7 63.316 63.316 0 0 1 -16 9.38 63.616 63.616 0 0 1 -24 4.66v-294.4a80.035 80.035 0 0 1 64 78.4z" fill="#ffb431"/><rect fill="#fdc8a2" height="56" rx="12" width="56" x="24" y="432"/><path d="m464 360h-112a22.627 22.627 0 0 1 0 32h112a16 16 0 0 0 16-16 16 16 0 0 0 -16-16z" fill="#e9d6bb"/><path d="m464 360h-54.627a22.628 22.628 0 0 1 0 32h54.627a16 16 0 0 0 16-16 16 16 0 0 0 -16-16z" fill="#de5540"/><path d="m456 392h-112a22.627 22.627 0 0 1 0 32h112a16 16 0 0 0 16-16 16 16 0 0 0 -16-16z" fill="#f1ddc1"/><path d="m472 424h-112a22.627 22.627 0 0 1 0 32h112a16 16 0 0 0 16-16 16 16 0 0 0 -16-16z" fill="#e9d6bb"/><path d="m456 456h-112a22.627 22.627 0 0 1 0 32h112a16 16 0 0 0 16-16 16 16 0 0 0 -16-16z" fill="#f1ddc1"/><path d="m456 392h-54.627a22.628 22.628 0 0 1 0 32h54.627a16 16 0 0 0 16-16 16 16 0 0 0 -16-16z" fill="#844e3a"/><path d="m472 424h-54.627a22.628 22.628 0 0 1 0 32h54.627a16 16 0 0 0 16-16 16 16 0 0 0 -16-16z" fill="#ffb431"/><path d="m456 456h-54.627a22.628 22.628 0 0 1 0 32h54.627a16 16 0 0 0 16-16 16 16 0 0 0 -16-16z" fill="#96b268"/><path d="m346.21 298.3a24.166 24.166 0 0 1 13.79 21.7v16h16v-16a40.309 40.309 0 0 0 -21.838-35.623 71.592 71.592 0 0 0 5.838-28.377v-152a88.1 88.1 0 0 0 -88-88h-16a87.255 87.255 0 0 0 -52.8 17.6l9.61 12.793a71.36 71.36 0 0 1 26.218-12.386l-28.57 39.993-24.872 14.919a71.751 71.751 0 0 1 17.557-33.809l-11.743-10.867a87.689 87.689 0 0 0 -23.346 57.463l-.054 162.294a56.2 56.2 0 0 0 2.489 16.529 39.928 39.928 0 0 0 -32.31 29.771l-2.425 9.7h-67.754a20.023 20.023 0 0 0 -20 20v20h16v-20a4 4 0 0 1 4-4h84v88.4a20.033 20.033 0 0 0 -16 19.6v32a20.047 20.047 0 0 0 .4 4h-48.8a20.047 20.047 0 0 0 .4-4v-32a20.023 20.023 0 0 0 -20-20h-4v-48h-16v48h-12a20.023 20.023 0 0 0 -20 20v32a20.023 20.023 0 0 0 20 20h284v-16h-64v-24h-16v24h-16v-40h80a16.019 16.019 0 0 0 16-16v-103.527a72.472 72.472 0 0 0 26.21-22.173zm-274.21 177.7a4 4 0 0 1 -4 4h-32a4 4 0 0 1 -4-4v-32a4 4 0 0 1 4-4h32a4 4 0 0 1 4 4zm166.98-414.409 41.02 23.086v21.723l-52.282-29.042zm-54.98 46.939 32.154-19.293 63.846 35.47v3.293a16 16 0 0 0 0 32v80h-24a72.081 72.081 0 0 1 -72-72zm96 181.35v19.7l-3.823 5.738a28.476 28.476 0 0 1 -52.177-15.798v-4.9a24.039 24.039 0 0 0 16-22.62v-17.462a88.17 88.17 0 0 0 16 1.462h16v16a24.083 24.083 0 0 0 8 17.88zm-96-71.342a88.786 88.786 0 0 0 16 17.295v28.167h16v-17.628a87.72 87.72 0 0 0 8 3.6v22.028a8.009 8.009 0 0 1 -8 8h-28.655a40.03 40.03 0 0 1 -3.345-16zm-30.3 95.642a23.96 23.96 0 0 1 23.28-18.18h16.071l-16 24h-24.8zm30.3 21.82v88h-16v-88zm24 144h-52a4 4 0 0 1 -4-4v-32a4 4 0 0 1 4-4h36a8 8 0 0 0 8-8v-4.687l8 8zm96-56h-84.686l-19.314-19.314v-76.686a8 8 0 0 0 -4.32-7.1l12.405-18.6a44.463 44.463 0 0 0 78.63 25.592 8 8 0 0 0 1.285.108 71.947 71.947 0 0 0 16-1.814zm8-336v218.579a55.549 55.549 0 0 1 -16 4.852v-263.431h-16v18.317l-31.666-17.817 11.782-16.5h11.884a72.081 72.081 0 0 1 72 72v152a55.8 55.8 0 0 1 -16 39.138v-207.138zm-96 72a16 16 0 1 1 16-16 16.019 16.019 0 0 1 -16 16zm14.111 24a68.138 68.138 0 0 0 30.311-7.155l7.156 14.31a84.213 84.213 0 0 1 -37.467 8.845h-6.111v-16zm54.089 166.25 8.875 13.312a74.054 74.054 0 0 1 -76.4 3.469l7.633-14.062a58.056 58.056 0 0 0 59.9-2.719zm194.1 66.6a23.91 23.91 0 0 0 -1.4-20.623 23.99 23.99 0 0 0 -12.9-44.227h-112a8 8 0 0 0 -5.657 13.656 14.654 14.654 0 0 1 1.9 18.344h-4.243a8 8 0 0 0 -5.657 13.656 14.646 14.646 0 0 1 0 20.688 8 8 0 0 0 5.657 13.656h12.244a14.668 14.668 0 0 1 0 16h-12.244a8 8 0 0 0 -5.657 13.656 14.646 14.646 0 0 1 0 20.688 8 8 0 0 0 5.657 13.656h112a23.985 23.985 0 0 0 22.3-32.846 24 24 0 0 0 0-46.308zm-112.742-48.85h98.442a8 8 0 0 1 0 16h-98.442a30.852 30.852 0 0 0 0-16zm-8 48a30.852 30.852 0 0 0 0-16h98.442a8 8 0 0 1 0 16zm98.442 64h-98.442a30.852 30.852 0 0 0 0-16h98.442a8 8 0 0 1 0 16zm16-32h-98.442a30.852 30.852 0 0 0 0-16h98.442a8 8 0 0 1 0 16z"/></g></svg>