<?xml version="1.0" encoding="UTF-8"?>
<svg xmlns="http://www.w3.org/2000/svg" viewBox="0 0 512 512" width="512" height="512"><g id="Filled_outline" data-name="Filled outline"><rect x="24" y="24" width="432" height="224" style="fill:#426887"/><rect x="24" y="248" width="432" height="32" style="fill:#cececc"/><rect x="248" y="456" width="112" height="40" style="fill:#844e3a"/><rect x="24" y="328" width="48" height="168" style="fill:#fdc8a2"/><path d="M248,224V328H192l19.7,39.4A44.492,44.492,0,0,0,248,391.851V392h3.5A44.5,44.5,0,0,0,296,347.5V256l18.159-30.266a8,8,0,0,0-5.291-11.96L284.2,208.84a8,8,0,0,0-7.225,2.187L264,224h0a8,8,0,0,0-8-8h0A8,8,0,0,0,248,224Z" style="fill:#fdc8a2"/><path d="M128,40h0a72,72,0,0,1,72,72V224a40,40,0,0,1-40,40H96a40,40,0,0,1-40-40V112a72,72,0,0,1,72-72Z" style="fill:#f99e0c"/><path d="M187.35,410.05l-7.772-23.317A18.3,18.3,0,0,1,184,368h0a45.2,45.2,0,0,0,12.533-40H248l-23.954-59.885A32,32,0,0,0,194.335,248H64a40,40,0,0,0-40,40v40H59.467A45.2,45.2,0,0,0,72,368h0a18.3,18.3,0,0,1,4.422,18.733L68.65,410.05A246.866,246.866,0,0,0,60.72,440c-.56,2.83-1.08,5.67-1.54,8.52C57.07,461.55,56,482.76,56,496H200c0-16.14-1.58-40.21-4.72-56A246.866,246.866,0,0,0,187.35,410.05Z" style="fill:#96b268"/><path d="M200,496H56c0-13.24,1.07-34.45,3.18-47.48.46-2.85.98-5.69,1.54-8.52H195.28C198.42,455.79,200,479.86,200,496Z" style="fill:#844e3a"/><path d="M168,248a40,40,0,0,1-80,0h8a8,8,0,0,0,8-8V200h48v40a8,8,0,0,0,8,8Z" style="fill:#fdc8a2"/><path d="M152,200v35.34a64.133,64.133,0,0,1-48,0V200Z" style="fill:#fdbf92"/><path d="M60,176H72V136H60a20,20,0,0,0-20,20h0A20,20,0,0,0,60,176Z" style="fill:#fdb683"/><path d="M196,136H184v40h12a20,20,0,0,0,20-20h0A20,20,0,0,0,196,136Z" style="fill:#fdb683"/><rect x="64" y="72" width="128" height="152" rx="64" ry="64" style="fill:#fdc8a2"/><path d="M200,112v24h-8l-2.5-1.25A71.728,71.728,0,0,1,152,88a112.63,112.63,0,0,1-62.81,41.7L64,136H56V112a72,72,0,0,1,144,0Z" style="fill:#ffb431"/><rect x="240" y="328" width="16" height="24" style="fill:#fdb683"/><path d="M368,360a40,40,0,0,0-40,40v96H488V400a40,40,0,0,0-40-40Z" style="fill:#de5540"/><path d="M456,256H352v40l-16,16,16,8v16a24,24,0,0,0,24,24h80V256Z" style="fill:#fdc8a2"/><path d="M456,320H408l-8-8,3.029-3.029a16.972,16.972,0,0,0,4.971-12h0A16.971,16.971,0,0,0,391.029,280H384l-32-24a32,32,0,0,1,32-32h40a32,32,0,0,1,32,32Z" style="fill:#844e3a"/><path d="M360,496H488V416a24,24,0,0,0-24-24H396.331a24,24,0,0,0-23.673,20.054Z" style="fill:#426887"/><path d="M376,136H320l-40,32V136H256a24,24,0,0,1-24-24V48a24,24,0,0,1,24-24H376a24,24,0,0,1,24,24v64A24,24,0,0,1,376,136Z" style="fill:#348ed8"/><path d="M128,327.921a61.28,61.28,0,0,1-36.8-12.188l9.6-12.8a45.569,45.569,0,0,0,54.4,0l9.6,12.8A61.28,61.28,0,0,1,128,327.921Z" style="fill:#8da662"/><path d="M32,32V240H16V24a8,8,0,0,1,8-8H216V32H32ZM464,208V24a8,8,0,0,0-8-8H416V32h32V208ZM189.657,373.657l-4.5,4.5,9.786,29.36a255.65,255.65,0,0,1,8.188,30.921C206.475,455.279,208,480.082,208,496H192c0-4.744-.146-10.236-.431-16H112V464h78.45c-.51-5.6-1.143-11.067-1.9-16H67.376q-.155.906-.3,1.794C65.078,462.144,64,482.816,64,496H48c0-14.153,1.128-35.447,3.282-48.759.447-2.767.967-5.644,1.59-8.793a255.574,255.574,0,0,1,8.189-30.926L64,398.7V371.137A53.293,53.293,0,0,1,50.76,336H32V496H16V288a48.077,48.077,0,0,1,35.372-46.3A47.768,47.768,0,0,1,48,224V181.311a28.006,28.006,0,0,1,0-50.6V112A79.4,79.4,0,0,1,63.349,64.874l12.922,9.434A63.412,63.412,0,0,0,65.562,97.9c17.047-5.329,28.619-10.767,35.694-14.683,9.259-5.125,13.017-8.805,13.055-8.842l11.435,11.19c-.668.689-16.284,16.382-61.746,29.507v12.681l23.254-5.814A104.972,104.972,0,0,0,145.6,83.2a8,8,0,0,1,14.161,2.86A63.637,63.637,0,0,0,192,127.042V112A64,64,0,0,0,85.335,64.3L74.665,52.373A80,80,0,0,1,208,112v18.689a28.006,28.006,0,0,1,0,50.6V224a47.867,47.867,0,0,1-2.734,16H240V224a16.006,16.006,0,0,1,25.538-12.852l5.774-5.775a16.006,16.006,0,0,1,14.444-4.381l24.682,4.933a16,16,0,0,1,10.579,23.928L314.929,240H329.01v16H305.329L304,258.216V272h24v16H304v59.5a52.387,52.387,0,0,1-58.294,52.166,52.772,52.772,0,0,1-41.162-28.689l-5.259-10.518A53.072,53.072,0,0,1,189.657,373.657ZM240,352V336H205.24c0,.189-.012.377-.014.565l13.629,27.257C224.7,375.528,238.417,384,251.5,384A36.491,36.491,0,0,0,288,347.5V256a8,8,0,0,1,1.14-4.115l18.16-30.27-24.667-4.93-12.976,12.972A8,8,0,0,1,256,224V352Zm-13.64-96a40.411,40.411,0,0,1,5.118,9.149L240,286.457V256Zm-26.744-88.559A11.992,11.992,0,0,0,200,144.7V160A72.611,72.611,0,0,1,199.616,167.441ZM72,160a56,56,0,0,0,112,0V140.892a79.6,79.6,0,0,1-34.916-37.114,121.066,121.066,0,0,1-57.949,33.684L72,142.246Zm88,64.472V240h27.689A31.707,31.707,0,0,0,192,224V192.921A72.459,72.459,0,0,1,160,224.472ZM144,240v-9.814a71.469,71.469,0,0,1-32,0V240a16.023,16.023,0,0,1-15,15.97,31.386,31.386,0,0,0,1.564,4.583,32.015,32.015,0,0,0,58.872.014,31.384,31.384,0,0,0,1.569-4.6A16.022,16.022,0,0,1,144,240ZM64,224a31.707,31.707,0,0,0,4.311,16H96V224.472a72.459,72.459,0,0,1-32-31.551ZM51.518,164.482a11.926,11.926,0,0,0,4.866,2.959A72.611,72.611,0,0,1,56,160V144.7a11.982,11.982,0,0,0-4.482,19.782ZM188.655,329.409c-.009-.05-.01-.1-.018-.15a37.008,37.008,0,0,0-10.294-19.6l11.314-11.314A52.949,52.949,0,0,1,202.8,320h33.388l-19.562-48.909A23.894,23.894,0,0,0,194.33,256h-19a47.992,47.992,0,0,1-94.652,0H64a32.036,32.036,0,0,0-32,32v32H53.2a52.949,52.949,0,0,1,13.139-21.657l11.314,11.314a37.008,37.008,0,0,0-10.294,19.6c-.008.051-.009.1-.018.15a37.3,37.3,0,0,0,10.312,32.934l8,8a8,8,0,0,1,1.933,8.186l-11.35,34.05c-2.124,6.377-3.98,12.879-5.562,19.421H185.322c-1.582-6.543-3.438-13.045-5.562-19.423l-11.35-34.048a8,8,0,0,1,1.933-8.186l8-8A37.3,37.3,0,0,0,188.655,329.409ZM128,192c8.03,0,15.61-3.673,21.922-10.621l-11.844-10.758C135.85,173.075,132.292,176,128,176s-7.85-2.925-10.078-5.379l-11.844,10.758C112.39,188.327,119.97,192,128,192Zm-28-32a12,12,0,1,0-12-12A12.013,12.013,0,0,0,100,160Zm56,0a12,12,0,1,0-12-12A12.013,12.013,0,0,0,156,160ZM496,400v96H480V416a16.019,16.019,0,0,0-16-16H396.331a15.949,15.949,0,0,0-15.782,13.37L365.88,496H349.5l15.276-85.321A31.885,31.885,0,0,1,396.331,384H464a31.8,31.8,0,0,1,13.158,2.842A32.038,32.038,0,0,0,448,368H368a32.036,32.036,0,0,0-32,32v96H320V464H256v32H240V456a8,8,0,0,1,8-8h72V400a48.068,48.068,0,0,1,30.508-44.686A31.825,31.825,0,0,1,344,336V324.944l-11.578-5.789a8,8,0,0,1-2.079-12.812L344,292.687V256a40.045,40.045,0,0,1,40-40h40a40.045,40.045,0,0,1,40,40v98.752A48.075,48.075,0,0,1,496,400Zm-48-72H408a8,8,0,0,1-5.657-2.343l-8-8a8,8,0,0,1,0-11.314l3.029-3.03A8.97,8.97,0,0,0,391.029,288H384a8,8,0,0,1-4.8-1.6L360,272v24a8,8,0,0,1-2.343,5.657l-8.152,8.152,6.073,3.036A8,8,0,0,1,360,320v16a16.019,16.019,0,0,0,16,16h72Zm0-72a24.028,24.028,0,0,0-24-24H384a24.039,24.039,0,0,0-23.7,20.223L386.667,272h4.362a24.977,24.977,0,0,1,20.092,39.807l.192.193H448ZM272,168V144H256a32.036,32.036,0,0,1-32-32V48a32.036,32.036,0,0,1,32-32H376a32.036,32.036,0,0,1,32,32v64a32.036,32.036,0,0,1-32,32H322.807L285,174.247A8,8,0,0,1,272,168Zm8-40a8,8,0,0,1,8,8v15.355l27-21.6A8,8,0,0,1,320,128h56a16.019,16.019,0,0,0,16-16V48a16.019,16.019,0,0,0-16-16H256a16.019,16.019,0,0,0-16,16v64a16.019,16.019,0,0,0,16,16Zm16-72H264V72h32Zm72,0H312V72h56Zm0,32H264v16H368ZM100.8,302.933l-9.6,12.8a61.65,61.65,0,0,0,73.6,0l-9.6-12.8A45.569,45.569,0,0,1,100.8,302.933ZM80,480H96V464H80Z"/></g></svg>
