<svg height="512" viewBox="0 0 512 512" width="512" xmlns="http://www.w3.org/2000/svg"><g id="Filled_outline" data-name="Filled outline"><rect fill="#426887" height="384" rx="40" width="464" x="24" y="24"/><path d="m448 408h-384a40 40 0 0 1 -40-40v-16h464v16a40 40 0 0 1 -40 40z" fill="#dfdfdd"/><path d="m320 488h-128l16.8-56 7.2-24h80l7.2 24z" fill="#d5d5d3"/><path d="m160 480h192v16h-192z" fill="#dfdfdd"/><path d="m120 200h48v32h-48z" fill="#fdbf92"/><path d="m88 120h112a0 0 0 0 1 0 0v56a56 56 0 0 1 -56 56 56 56 0 0 1 -56-56v-56a0 0 0 0 1 0 0z" fill="#fdc8a2"/><path d="m88 152 24-24h76a20 20 0 0 0 20-20 20 20 0 0 0 -20-20h-68a32 32 0 0 0 -32 32z" fill="#844e3a"/><path d="m280 232-24 40-14.678-24.464a32 32 0 0 0 -27.44-15.536h-125.882a32 32 0 0 0 -32 32v88h144v-80l19.318 28.977a42.722 42.722 0 0 0 35.545 19.023 42.719 42.719 0 0 0 37.344-21.973l27.793-50.027z" fill="#f1ddc1"/><path d="m160 336-16 16-16-16 8-80-8-24h32l-8 24z" fill="#426887"/><path d="m287.167 217.667-7.167 14.333 40 16 5.567-11.133a21.467 21.467 0 0 0 -11.228-29.531 21.465 21.465 0 0 0 -27.172 10.331z" fill="#fdc8a2"/><path d="m303.2 432h-94.4l7.2-24h80z" fill="#c6c6c4"/><path d="m480 344h-272v-45.577l4.661 6.991a50.72 50.72 0 0 0 86.539-3.5l27.793-50.026c.035-.063.061-.129.094-.193.021-.04.048-.074.068-.115l5.567-11.133a29.466 29.466 0 1 0 -52.71-26.355l-7.028 14.054-16.984 28.305-7.818-13.031a40.2 40.2 0 0 0 -34.3-19.42h-27.617a63.851 63.851 0 0 0 21.735-48v-48.431a27.981 27.981 0 0 0 -20-47.569h-68a40.045 40.045 0 0 0 -40 40v56a63.851 63.851 0 0 0 21.735 48h-13.735a39.957 39.957 0 0 0 -26.461 10l10.59 12a23.963 23.963 0 0 1 15.871-6h34.233l5.636 16.906-7.829 78.3a8 8 0 0 0 2.3 6.453l2.346 2.341h-20.686v-72h-16v72h-24v-80a23.869 23.869 0 0 1 1.623-8.7l-14.91-5.8a39.813 39.813 0 0 0 -2.713 14.5v80h-16v-224h-16v248a48.053 48.053 0 0 0 48 48h141.247l-19.2 64h-26.047v16h192v-16h-26.047l-16.3-54.329-15.326 4.6 14.921 49.729h-106.5l19.2-64h226.052a48.053 48.053 0 0 0 48-48v-64h-16zm-185.678-122.755a13.549 13.549 0 0 1 17.046-6.48 13.465 13.465 0 0 1 7.043 18.525l-2.274 4.549-20.075-8.029-5.018-2.007zm-80.44 18.755a24.119 24.119 0 0 1 20.579 11.652l14.679 24.464a8 8 0 0 0 13.72 0l20.494-34.158 25.242 10.1-23.382 42.087a34.721 34.721 0 0 1 -59.24 2.4l-19.318-28.977a8 8 0 0 0 -14.656 4.432v72h-28.686l2.343-2.343a8 8 0 0 0 2.3-6.453l-7.829-78.3 5.639-16.904zm-117.882-120a24.028 24.028 0 0 1 24-24h68a12 12 0 0 1 0 24h-76a8 8 0 0 0 -5.657 2.343l-10.343 10.344zm0 56v-20.686l19.313-19.314s75.38-.1 76.687-.29v40.29a48 48 0 0 1 -96 0zm47.59 77.47-4.49-13.47h9.8l-4.49 13.47a8.016 8.016 0 0 0 -.37 3.326l7.622 76.227-7.662 7.664-7.662-7.664 7.622-76.223a8.016 8.016 0 0 0 -.37-3.33zm336.41 114.53a32.036 32.036 0 0 1 -32 32h-384a32.036 32.036 0 0 1 -32-32v-8h448zm16-304v224h-16v-224a32.036 32.036 0 0 0 -32-32h-384a32.036 32.036 0 0 0 -32 32v40h-16v-40a48.053 48.053 0 0 1 48-48h384a48.053 48.053 0 0 1 48 48zm-198 38.541-9.213-13.082a96.187 96.187 0 0 0 -40.787 78.541 94.932 94.932 0 0 0 10.478 43.644l14.244-7.288a78.77 78.77 0 0 1 -8.322-28.356h65.769a15.963 15.963 0 0 0 27.67 0h65.761a80.11 80.11 0 0 1 -79.6 72c-2.429 0-4.879-.109-7.282-.326l-1.436 15.935c2.879.259 5.813.391 8.718.391a96.008 96.008 0 0 0 42.947-181.87 96.135 96.135 0 0 0 -86.589.343l7.284 14.246a80.212 80.212 0 0 1 64.809-3.508l-29.415 58.838a16 16 0 0 0 -12.871 7.951h-65.755a80.2 80.2 0 0 1 33.59-57.459zm88.759-2.167a79.452 79.452 0 0 1 36.841 59.626h-65.765c-.157-.27-.314-.54-.486-.8zm-10.759 91.626v16h-16v-16zm32-136v16h-16v-16zm32 16h-16v-16h16zm-208-16h40v16h-40zm0 32h24v16h-24zm200 200h-32v-16h32zm-48-16v16h-16v-16zm-16 32h64v16h-64zm-296-240h-16v-16h16zm32 0h-16v-16h16zm32-16v16h-16v-16zm-12 128a12 12 0 1 1 12-12 12.013 12.013 0 0 1 -12 12zm28-12a12 12 0 1 1 12 12 12.013 12.013 0 0 1 -12-12zm-8 43.271a29.991 29.991 0 0 1 -21.765-9.339l11.53-11.094a14.032 14.032 0 0 0 20.47 0l11.53 11.094a29.991 29.991 0 0 1 -21.765 9.339z"/></g></svg>