<?xml version="1.0"?>
<svg xmlns="http://www.w3.org/2000/svg" xmlns:xlink="http://www.w3.org/1999/xlink" xmlns:svgjs="http://svgjs.com/svgjs" version="1.1" width="512" height="512" x="0" y="0" viewBox="0 0 512 512" style="enable-background:new 0 0 512 512" xml:space="preserve" class=""><g>
<path xmlns="http://www.w3.org/2000/svg" style="" d="M256,0C115.3,0,0,115.3,0,256s115.3,256,256,256s256-115.3,256-256S396.7,0,256,0z" fill="#17ace8" data-original="#17ace8" class=""/>
<path xmlns="http://www.w3.org/2000/svg" style="" d="M512,256c0,140.7-115.3,256-256,256V0C396.7,0,512,115.3,512,256z" fill="#3d85c6" data-original="#1689fc" class=""/>
<g xmlns="http://www.w3.org/2000/svg">
	<path style="" d="M256,196c-16.5,0-30,13.5-30,30v150c0,16.5,13.5,30,30,30s30-13.5,30-30V226   C286,209.5,272.5,196,256,196z" fill="#b7e0f6" data-original="#b7e0f6"/>
	<path style="" d="M256,106c-16.5,0-30,13.5-30,30s13.5,30,30,30s30-13.5,30-30S272.5,106,256,106z" fill="#b7e0f6" data-original="#b7e0f6"/>
</g>
<g xmlns="http://www.w3.org/2000/svg">
	<path style="" d="M256,166v-60c16.5,0,30,13.5,30,30S272.5,166,256,166z" fill="#a4d9f5" data-original="#a4d9f5" class=""/>
	<path style="" d="M286,226v150c0,16.5-13.5,30-30,30V196C272.5,196,286,209.5,286,226z" fill="#a4d9f5" data-original="#a4d9f5" class=""/>
</g>
<g xmlns="http://www.w3.org/2000/svg">
</g>
<g xmlns="http://www.w3.org/2000/svg">
</g>
<g xmlns="http://www.w3.org/2000/svg">
</g>
<g xmlns="http://www.w3.org/2000/svg">
</g>
<g xmlns="http://www.w3.org/2000/svg">
</g>
<g xmlns="http://www.w3.org/2000/svg">
</g>
<g xmlns="http://www.w3.org/2000/svg">
</g>
<g xmlns="http://www.w3.org/2000/svg">
</g>
<g xmlns="http://www.w3.org/2000/svg">
</g>
<g xmlns="http://www.w3.org/2000/svg">
</g>
<g xmlns="http://www.w3.org/2000/svg">
</g>
<g xmlns="http://www.w3.org/2000/svg">
</g>
<g xmlns="http://www.w3.org/2000/svg">
</g>
<g xmlns="http://www.w3.org/2000/svg">
</g>
<g xmlns="http://www.w3.org/2000/svg">
</g>
</g></svg>
