<svg xmlns="http://www.w3.org/2000/svg" x="0" y="0" enable-background="new 0 0 512 512" version="1.1"
    viewBox="0 0 512 512" xml:space="preserve" id="media" title="Medias" class="svg-icon ">
    <path fill="#ABB9C6"
        d="M346.4 478.938L165.605 478.938 178.512 448.737 183.427 437.253 194.153 412.162 317.852 412.162 328.578 437.253 333.492 448.737z">
    </path>
    <path fill="#93A0AA" d="M328.578 437.253L183.427 437.253 194.153 412.162 317.852 412.162z"></path>
    <path fill="#B6C7D3"
        d="M393.462 490.425H118.535a52.568 52.568 0 0143.442-22.967H350.02a52.566 52.566 0 0143.442 22.967z"></path>
    <path fill="#ABB9C6"
        d="M512 55.095v326.991c0 18.511-14.997 33.52-33.509 33.52H33.509C14.997 415.606 0 400.597 0 382.086V55.095c0-18.511 14.997-33.52 33.509-33.52h444.983c18.511 0 33.508 15.009 33.508 33.52z">
    </path>
    <path fill="#C5D6E2"
        d="M512 55.095v326.991c0 18.511-14.997 33.52-33.509 33.52H180.898l24.552-59.875L342.47 21.575h136.021c18.512 0 33.509 15.009 33.509 33.52z">
    </path>
    <path fill="#93A0AA"
        d="M256.002 393.214c-3.448 0-6.634-2.135-7.958-5.317-1.465-3.521-.359-7.694 2.622-10.058 6.24-4.949 15.53.968 13.723 8.703-.899 3.846-4.421 6.672-8.387 6.672z">
    </path>
    <path fill="#B8E9F2"
        d="M512 55.095v300.636H0V55.095c0-18.511 14.997-33.52 33.51-33.52h444.983c18.51 0 33.507 15.009 33.507 33.52">
    </path>
    <path fill="#D4F7FC" d="M512 55.095v300.636H205.451l137.02-334.156h136.021c18.511 0 33.508 15.009 33.508 33.52">
    </path>
    <path fill="#DB4949" d="M401.26 120.676L333.12 157.721 333.12 247.959 401.26 285.004 401.26 120.676"></path>
    <path fill="#F75757"
        d="M308.997 117.206H134.866c-13.957 0-25.272 11.315-25.272 25.272v120.725c0 13.957 11.315 25.272 25.272 25.272h174.131c13.957 0 25.27-11.315 25.27-25.272V142.477c.002-13.957-11.313-25.271-25.27-25.271">
    </path>
    <path fill="#FFF" d="M272.442 202.84L197.807 159.749 197.807 245.931 272.442 202.84"></path>
    <path fill="#D4F7FC"
        d="M478.491 21.575H342.47l-39.214 95.631h5.741c13.957 0 25.27 11.315 25.27 25.272v14.62l66.991-36.421v164.328l-66.991-36.421v14.62c0 13.957-11.315 25.272-25.27 25.272h-75.969l-27.579 67.257H512V55.095c0-18.511-14.997-33.52-33.509-33.52">
    </path>
    <path fill="#E06B6B" d="M401.26 120.676L334.269 157.097 334.269 248.584 401.26 285.004 401.26 120.676"></path>
    <path fill="#F67676"
        d="M308.997 117.206h-5.741l-34.291 83.627 3.476 2.007-5.631 3.252-33.781 82.382h75.969c13.957 0 25.27-11.315 25.27-25.272V142.476c.001-13.956-11.314-25.27-25.271-25.27">
    </path>
    <path fill="#FDFDFD" d="M268.966 200.834L266.811 206.092 272.442 202.84 268.966 200.834"></path>
</svg>