<svg xmlns="http://www.w3.org/2000/svg" x="0" y="0" enable-background="new 0 0 279.705 279.705" version="1.1"
    viewBox="0 0 279.705 279.705" xml:space="preserve" id="feedback" title="Feedback" class="svg-icon ">
    <path fill="#EFC75E" d="M189.185 34.681l55.13 55.13L72.799 262.203l-55.13-55.13L189.185 34.681z"></path>
    <path fill="#F4D88F" d="M58.246 247.58l151.6-151.6 14.85 14.85-151.6 151.6-14.85-14.85z"></path>
    <path fill="#E3BD59" d="M17.669 207.073l14.001 14.001L192.686 52.182l-15.752-5.251L17.669 207.073z"></path>
    <path fill="#E19178"
        d="M242.565 4.928l32.378 32.378c6.126 6.126 6.126 16.627 0 22.752l-35.878 35.878-55.13-55.13 35.003-35.879c7.001-6.125 17.502-7 23.627.001z">
    </path>
    <path fill="#CB836D"
        d="M227.689 13.679c6.126-6.126 17.502-6.126 23.627 0l23.627 23.627-32.378-32.378c-6.126-6.126-17.502-6.126-23.627.875l-35.003 35.003 8.751 7.876 35.003-35.003z">
    </path>
    <path fill="#ECEEEE" d="M163.423 60.251l55.515 56.688 26.253-26.253-56.005-56.005-25.763 25.57z"></path>
    <path fill="#DBDEE0" d="M17.669 207.073L.167 279.705l72.632-17.502-55.13-55.13z"></path>
    <path fill="#BDBFC1" d="M17.669 262.203H4.542L.167 279.705l17.502-4.375v-13.127z"></path>
</svg>